<?xml version="1.0" encoding="utf-8"?>
<svg width="50px" height="50px" viewBox="0 0 50 50" fill="#000000">
    <path d="M7.07,16.28c-1.69,0-3.06,1.37-3.06,3.05l0,12.76c0,1.69,1.37,3.05,3.06,3.05
	c1.69,0,3.06-1.36,3.06-3.05l0-12.76C10.13,17.65,8.76,16.28,7.07,16.28"/>
    <path d="M31.75,4.82l2.14-3.88c0.11-0.2,0.04-0.46-0.17-0.58c-0.21-0.11-0.47-0.04-0.58,0.17l-2.16,3.92
	c-1.82-0.8-3.85-1.25-6-1.25c-2.14,0-4.17,0.45-5.98,1.25l-2.16-3.91c-0.11-0.21-0.37-0.28-0.57-0.17
	c-0.21,0.11-0.28,0.37-0.17,0.57l2.14,3.88c-4.2,2.16-7.04,6.26-7.03,10.98l27.57,0C38.78,11.08,35.95,6.98,31.75,4.82 M18.72,10.82
	c-0.63,0-1.15-0.52-1.15-1.15c0-0.63,0.52-1.15,1.15-1.15c0.64,0,1.16,0.52,1.16,1.15C19.88,10.31,19.36,10.82,18.72,10.82
	 M31.27,10.82c-0.64,0-1.16-0.51-1.16-1.15c0-0.63,0.52-1.15,1.16-1.15c0.63,0,1.15,0.52,1.15,1.15
	C32.43,10.31,31.91,10.82,31.27,10.82"/>
    <path d="M11.33,36.64c0,1.8,1.46,3.25,3.27,3.25l2.22,0l0,6.75c0,1.68,1.37,3.05,3.06,3.05
	c1.69,0,3.06-1.37,3.06-3.05l0-6.75l4.13,0l0,6.75c0,1.68,1.37,3.05,3.06,3.05c1.69,0,3.06-1.37,3.06-3.05l0-6.75l2.23,0
	c1.8,0,3.27-1.46,3.27-3.25l0-19.78l-27.36,0L11.33,36.64z"/>
    <path d="M42.93,16.28c-1.69,0-3.06,1.37-3.06,3.05l0,12.76c0,1.69,1.37,3.05,3.06,3.05
	c1.69,0,3.06-1.36,3.06-3.05l0-12.76C45.98,17.64,44.62,16.28,42.93,16.28"/>
</svg>