<svg width="58px" height="63px" viewBox="0 0 58 63" version="1.1" xmlns="http://www.w3.org/2000/svg" xmlns:xlink="http://www.w3.org/1999/xlink">
    <g id="V3" stroke="none" stroke-width="1" fill="none" fill-rule="evenodd">
        <g id="Artboard-Copy-10" transform="translate(-643.000000, -1263.000000)" fill="#22A699">
            <g id="Group-35" transform="translate(-37.000000, 1206.000000)">
                <g id="Group-24">
                    <g id="Group-18">
                        <g id="Group-33">
                            <g id="Group-32" transform="translate(0.000000, 57.000000)">
                                <g id="Group-42" transform="translate(605.000000, 0.000000)">
                                    <g id="Group-9">
                                        <g id="Group-19" transform="translate(75.607639, 0.000000)">
                                            <g id="Group-11">
                                                <polygon id="Fill-1" points="35.3509356 17.7603155 28.7964926 17.7603155 19.3329781 41.8159388 25.2616606 41.8159388 26.8081328 37.7411359 35.7499556 37.7411359 34.1312285 33.2322084 28.243796 33.2322084 32.0735793 22.8816121 38.8863069 41.8159388 44.8144502 41.8159388"></polygon>
                                                <path d="M55.6189955,49.1168365 C55.163897,49.1168365 54.7621809,49.3375957 54.5168375,49.6761283 C54.5168375,49.6761283 53.337302,50.9940819 52.7015661,51.6180699 C50.0111467,54.2531848 46.8783003,56.3216141 43.3911889,57.7663193 C39.781945,59.2617253 35.9470392,60.0198588 31.9918881,60.0198588 C28.0361977,60.0198588 24.2012919,59.2617253 20.5925872,57.7663193 C17.1049366,56.32135 13.9723599,54.2529208 11.2822101,51.6180699 C8.59179064,48.9824268 6.47968064,45.9142436 5.00438501,42.4988136 C3.47840306,38.9634975 2.70381894,35.2071582 2.70381894,31.3335736 C2.70381894,27.459989 3.47840306,23.7033856 5.00438501,20.1683337 C6.47968064,16.7526395 8.59179064,13.6847204 11.2822101,11.0496054 C13.9726295,8.41449051 17.1052062,6.34606128 20.5925872,4.90082789 C24.2012919,3.40568602 28.0361977,2.64755244 31.9918881,2.64755244 C35.9470392,2.64755244 39.7822146,3.40568602 43.3911889,4.90082789 C45.9314366,5.95313103 48.2821498,7.33815737 50.4120539,9.03082063 C50.2982793,9.35905471 50.2346518,9.71105473 50.2346518,10.0773143 C50.2346518,11.8647773 51.7142611,13.3139717 53.5389689,13.3139717 C55.3642159,13.3139717 56.8438252,11.8647773 56.8438252,10.0773143 C56.8438252,8.28932321 55.3642159,6.84065696 53.5389689,6.84065696 C53.0860273,6.84065696 52.6538454,6.93017535 52.2604872,7.09231189 C46.7424178,2.66075574 39.6846165,2.64066033e-05 31.9918881,2.64066033e-05 C14.32312,2.64066033e-05 -8.08824381e-05,14.0285343 -8.08824381e-05,31.3341017 C-8.08824381e-05,48.6396691 14.32312,62.6684411 31.9918881,62.6684411 C41.8751825,62.6684411 50.7080836,58.2754386 56.5758347,51.3775058 C56.8200997,51.1379979 56.9718891,50.8071231 56.9718891,50.4419198 C56.9716195,49.7091366 56.3666188,49.1168365 55.6189955,49.1168365" id="Fill-10"></path>
                                            </g>
                                        </g>
                                    </g>
                                </g>
                            </g>
                        </g>
                    </g>
                </g>
            </g>
        </g>
    </g>
</svg>