<?xml version="1.0" encoding="UTF-8"?>
<svg width="256px" height="227px" viewBox="0 0 256 227" version="1.1" xmlns="http://www.w3.org/2000/svg" xmlns:xlink="http://www.w3.org/1999/xlink" preserveAspectRatio="xMidYMid">
    <g>
        <path d="M159.032004,16.2735642 C149.604559,1.90793512 147.35993,0 128.168347,0 L128.168347,0 L127.943884,0 L127.719421,0 L127.719421,0 C108.527839,0 106.395441,1.90793512 96.855765,16.2735642 C87.9894783,29.7413415 0,190.905743 0,195.395002 C0,201.904428 1.68347216,208.077159 7.74397194,216.831214 C13.9167032,225.697501 24.5786936,230.635686 32.3226655,222.779483 C37.5975449,217.504603 94.0499781,120.199912 121.322227,83.3879877 L121.322227,83.3879877 C124.57694,78.7864972 131.310829,78.7864972 134.677773,83.3879877 L134.677773,83.3879877 C161.950022,120.199912 218.402455,217.504603 223.677335,222.779483 C231.421306,230.635686 242.083297,225.697501 248.256028,216.831214 C254.316528,208.077159 256,201.904428 256,195.395002 C255.887769,190.905743 167.89829,29.62911 159.032004,16.2735642 Z" fill="#1173B6"></path>
    </g>
</svg>
