<?xml version="1.0" encoding="utf-8"?>
<!-- Generator: Adobe Illustrator 19.0.0, SVG Export Plug-In . SVG Version: 6.00 Build 0)  -->
<svg version="1.1" id="Ebene_1" xmlns="http://www.w3.org/2000/svg" xmlns:xlink="http://www.w3.org/1999/xlink" x="0px" y="0px"
	 viewBox="281 371 50 50" style="enable-background:new 281 371 50 50;" xml:space="preserve">
<path d="M324.49,402.35l-0.01-12.69c1.99-0.31,3.52-2.03,3.52-4.12c0-2.31-1.87-4.19-4.17-4.19c-1.34,0-2.52,0.65-3.28,1.64
	l-10.85-6.33c0.15-0.43,0.24-0.88,0.24-1.36c0-2.31-1.87-4.19-4.17-4.19s-4.17,1.87-4.17,4.19c0,0.42,0.08,0.81,0.19,1.19
	l-10.65,6.11c-0.76-0.78-1.81-1.26-2.97-1.26c-2.3,0-4.17,1.87-4.17,4.19c0,1.92,1.3,3.52,3.05,4.02l0.02,12.9
	c-1.77,0.49-3.07,2.09-3.07,4.02c0,2.31,1.87,4.19,4.17,4.19c1.32,0,2.48-0.63,3.24-1.58l10.89,6.31c-0.14,0.42-0.23,0.86-0.23,1.32
	c0,2.31,1.87,4.19,4.17,4.19s4.17-1.87,4.17-4.19c0-0.49-0.1-0.95-0.25-1.39l10.61-6.03c0.76,0.84,1.85,1.38,3.07,1.38
	c2.3,0,4.17-1.87,4.17-4.19C328,404.38,326.48,402.66,324.49,402.35z M309.27,413.85c-0.76-0.82-1.84-1.34-3.04-1.34
	c-1.23,0-2.32,0.54-3.09,1.4l-10.97-6.36c0.09-0.35,0.16-0.71,0.16-1.08c0-2.11-1.55-3.83-3.57-4.13l-0.02-12.68
	c2.02-0.29,3.59-2.02,3.59-4.13c0-0.53-0.11-1.03-0.28-1.49l10.55-6.05c0.76,0.91,1.89,1.5,3.17,1.5c1.22,0,2.3-0.53,3.06-1.37
	l10.97,6.4c-0.08,0.33-0.14,0.67-0.14,1.02c0,1.95,1.33,3.57,3.12,4.04l0.01,12.86c-1.79,0.47-3.12,2.09-3.12,4.04
	c0,0.47,0.1,0.92,0.24,1.34L309.27,413.85z"/>
<path d="M306.27,386.42l-0.47-1.18l-0.46,1.18c-0.51,1.28-2.25,3.89-5.18,7.75c-2.12,2.66-2.12,6.36,0,9.02
	c1.2,1.51,2.92,2.46,4.84,2.67c0.27,0.03,0.55,0.04,0.82,0.04c1.63,0,3.2-0.55,4.5-1.58c3.11-2.49,3.62-7.04,1.14-10.14
	C308.52,390.32,306.77,387.7,306.27,386.42z"/>
</svg>
