<?xml version="1.0" encoding="utf-8"?>
<!-- Generator: Adobe Illustrator 19.0.0, SVG Export Plug-In . SVG Version: 6.00 Build 0)  -->
<svg version="1.1" id="Ebene_1" xmlns="http://www.w3.org/2000/svg" xmlns:xlink="http://www.w3.org/1999/xlink" x="0px" y="0px"
	 viewBox="281 371 50 50" style="enable-background:new 281 371 50 50;" xml:space="preserve">
<path d="M324.46,402.33l-0.01-12.67c2.01-0.3,3.54-2.04,3.54-4.14c0-2.31-1.87-4.19-4.17-4.19s-4.17,1.87-4.17,4.19
	c0,0.48,0.09,0.95,0.24,1.38l-10.64,5.99c-0.76-0.81-1.83-1.32-3.03-1.32c-2.3,0-4.17,1.87-4.17,4.19s1.87,4.19,4.17,4.19
	s4.17-1.87,4.17-4.19c0-0.52-0.1-1.01-0.27-1.47l10.61-5.97c0.54,0.6,1.26,1.05,2.07,1.25l0.01,12.83c-1.81,0.46-3.15,2.1-3.15,4.06
	c0,0.48,0.09,0.94,0.23,1.37l-10.6,6.03c-0.76-0.83-1.85-1.35-3.06-1.35c-1.24,0-2.35,0.55-3.11,1.41l-10.94-6.34
	c0.1-0.36,0.15-0.73,0.15-1.12c0-2.12-1.56-3.86-3.59-4.14l-0.02-12.65c2.04-0.28,3.61-2.02,3.61-4.15c0-0.54-0.1-1.05-0.29-1.52
	l10.52-6.04c0.76,0.92,1.91,1.51,3.2,1.51c2.3,0,4.17-1.87,4.17-4.19s-1.87-4.19-4.17-4.19s-4.17,1.87-4.17,4.19
	c0,0.43,0.06,0.84,0.18,1.23l-10.62,6.1c-0.76-0.79-1.82-1.28-2.99-1.28c-2.3,0-4.17,1.87-4.17,4.19c0,1.93,1.3,3.55,3.08,4.04
	l0.02,12.86c-1.78,0.48-3.1,2.1-3.1,4.04c0,2.31,1.87,4.19,4.17,4.19c1.33,0,2.51-0.62,3.27-1.59l10.85,6.29
	c-0.14,0.42-0.23,0.88-0.23,1.35c0,2.31,1.87,4.19,4.17,4.19s4.17-1.87,4.17-4.19c0-0.5-0.09-0.98-0.25-1.42l10.59-6.02
	c0.76,0.85,1.87,1.39,3.1,1.39c2.3,0,4.17-1.87,4.17-4.19C328,404.37,326.46,402.64,324.46,402.33z"/>
</svg>
