<?xml version="1.0" encoding="utf-8"?>
<!-- Generator: Adobe Illustrator 19.0.0, SVG Export Plug-In . SVG Version: 6.00 Build 0)  -->
<svg version="1.1" id="Ebene_2" xmlns="http://www.w3.org/2000/svg" xmlns:xlink="http://www.w3.org/1999/xlink" x="0px" y="0px"
	 viewBox="271.62 371.01 55 42" style="enable-background:new 271.62 371.01 55 42;" xml:space="preserve">
<path d="M323.46,382.83c-0.49,0-0.94,0.13-1.35,0.33l-6.98-7.56c0.27-0.46,0.44-0.99,0.44-1.56c0-1.68-1.36-3.04-3.04-3.04
	c-1.38,0-2.54,0.93-2.9,2.19h-7.6c-0.37-1.26-1.52-2.19-2.9-2.19s-2.54,0.93-2.9,2.19h-7.35c-0.37-1.26-1.52-2.19-2.9-2.19
	c-1.68,0-3.04,1.36-3.04,3.04c0,0.56,0.16,1.08,0.43,1.53l-7.19,7.6c-0.42-0.21-0.88-0.34-1.38-0.34c-1.68,0-3.04,1.36-3.04,3.04
	c0,1.68,1.36,3.04,3.04,3.04c0.53,0,1.02-0.15,1.45-0.38l7.03,7.04c-0.21,0.42-0.34,0.88-0.34,1.38c0,1.68,1.36,3.04,3.04,3.04
	c0.5,0,0.96-0.13,1.37-0.34l9.03,9.05c-0.18,0.39-0.28,0.81-0.28,1.27c0,1.68,1.36,3.04,3.04,3.04s3.04-1.36,3.04-3.04
	c0-0.59-0.18-1.14-0.47-1.61l9.11-8.91c0.49,0.34,1.09,0.55,1.73,0.55c1.68,0,3.04-1.36,3.04-3.04c0-0.62-0.19-1.2-0.51-1.68
	l6.91-6.76c0.44,0.25,0.94,0.4,1.48,0.4c1.68,0,3.04-1.36,3.04-3.04C326.5,384.19,325.14,382.83,323.46,382.83z M299.12,406.92
	c-0.61,0-1.17,0.18-1.64,0.49l-8.91-8.93c0.13-0.21,0.22-0.44,0.29-0.68h20.76c0.03,0.11,0.06,0.22,0.1,0.32l-9.31,9.1
	C300.03,407.03,299.59,406.92,299.12,406.92z M277.4,384.34l7.19-7.6c0.42,0.21,0.88,0.34,1.38,0.34c1.38,0,2.54-0.93,2.9-2.19h7.35
	c0.14,0.47,0.38,0.9,0.71,1.24l-10.34,17.84c-0.2-0.04-0.41-0.06-0.62-0.06c-0.56,0-1.08,0.16-1.53,0.43l-7-7.01
	c0.24-0.43,0.39-0.93,0.39-1.46C277.83,385.31,277.66,384.79,277.4,384.34z M309.63,396.1h-20.76c-0.15-0.51-0.41-0.96-0.78-1.32
	l10.31-17.79c0.23,0.06,0.47,0.1,0.72,0.1c0.26,0,0.5-0.04,0.74-0.1l10.47,17.88C310.01,395.21,309.77,395.63,309.63,396.1z
	 M312.54,393.91c-0.26,0-0.5,0.04-0.74,0.1l-10.47-17.88c0.33-0.34,0.56-0.77,0.7-1.23h7.6c0.37,1.26,1.52,2.19,2.91,2.19
	c0.49,0,0.94-0.13,1.35-0.33l6.98,7.56c-0.28,0.46-0.44,0.99-0.44,1.56c0,0.52,0.14,1,0.37,1.42l-7.03,6.88
	C313.39,394,312.97,393.91,312.54,393.91z"/>
</svg>
