<svg width="37px" height="43px" viewBox="0 0 37 43" version="1.1" xmlns="http://www.w3.org/2000/svg" xmlns:xlink="http://www.w3.org/1999/xlink">
    <g id="V3" stroke="none" stroke-width="1" fill="none" fill-rule="evenodd">
        <g id="Artboard-Copy-10" transform="translate(-802.000000, -1272.000000)" fill-rule="nonzero" fill="rgba(39,174,96,1)">
            <g id="Group-35" transform="translate(-37.000000, 1206.000000)">
                <g id="Group-24">
                    <g id="Group-18">
                        <g id="Group-33">
                            <g id="Group-32" transform="translate(0.000000, 57.000000)">
                                <g id="Group-31" transform="translate(0.000000, 8.000000)">
                                    <g id="Group-16" transform="translate(435.000000, 0.000000)">
                                        <g id="Group-17">
                                            <g id="Group-25" transform="translate(388.000000, 1.000000)">
                                                <g id="Group-52">
                                                    <g id="Group-21" transform="translate(16.000000, 0.000000)">
                                                        <path d="M34.328181,14.064126 C32.2636426,12.8986435 29.6688204,14.4193207 29.2529598,14.6807834 L20.3390259,19.7484742 C19.0229566,18.7006715 17.1479457,18.7451841 15.8828352,19.8542638 C14.6177248,20.9633435 14.3239007,22.8201755 15.1845267,24.2672501 C16.0451527,25.7143246 17.8143861,26.3382768 19.3893243,25.750148 C20.9642625,25.1620191 21.8950156,23.5298117 21.6013718,21.8710091 L30.4906986,16.8144181 L30.5448343,16.7811186 C31.1292537,16.4111242 32.4851068,15.8573658 33.1187404,16.2162604 C33.5752027,16.4740232 33.8360384,17.3373436 33.8569544,18.6088913 L33.8458812,18.6088913 L33.8458812,29.7864239 C33.844036,30.8290763 33.2891788,31.7920763 32.3891389,32.3147193 L19.6106547,39.7146085 C18.7091267,40.2343092 17.5999286,40.2343092 16.6984005,39.7146085 L3.9199163,32.3147193 C3.0198764,31.7920763 2.46501927,30.8290763 2.46317402,29.7864239 L2.46317402,14.9928121 C2.46501927,13.9501596 3.0198764,12.9871596 3.9199163,12.4645166 L15.4852689,5.77378349 C16.5856234,7.03915246 18.4296514,7.33813456 19.871844,6.48500232 C21.3140367,5.63187009 21.9443315,3.86919685 21.3711897,2.29195403 C20.7980479,0.714711197 19.1844325,-0.228639608 17.5327203,0.0479104806 C15.8810081,0.324460569 14.6608347,1.74227934 14.630171,3.42061874 L2.69571143,10.327182 C1.03157575,11.2893948 0.00447390169,13.0670618 0,14.9928121 L0,29.7827239 C0.00181790319,31.7075778 1.02551845,33.4859765 2.68709893,34.4508207 L15.4655831,41.8507098 C17.128797,42.8097634 19.1753368,42.8097634 20.8385507,41.8507098 L33.6170349,34.4508207 C35.2774765,33.4866401 36.3010015,31.7099557 36.3041338,29.7864239 L36.3041338,19.0343849 L36.3127463,19.0343849 C36.3754945,16.512256 35.7024894,14.8411144 34.328181,14.064126 Z" id="Shape"></path>
                                                    </g>
                                                </g>
                                            </g>
                                        </g>
                                    </g>
                                </g>
                            </g>
                        </g>
                    </g>
                </g>
            </g>
        </g>
    </g>
</svg>