<?xml version="1.0" encoding="utf-8"?>
<!-- Generator: Adobe Illustrator 19.0.0, SVG Export Plug-In . SVG Version: 6.00 Build 0)  -->
<svg version="1.1" id="Ebene_1" xmlns="http://www.w3.org/2000/svg" xmlns:xlink="http://www.w3.org/1999/xlink" x="0px" y="0px"
	 viewBox="0 0 8.63 34.83" style="enable-background:new 0 0 8.63 34.83;" xml:space="preserve">
<style type="text/css">
	.hamburger-svg-1{fill:#E00082;}
	.hamburger-svg-2{fill:#C4C4C4;}
	.hamburger-svg-3{fill:url(#XMLID_63_);}
</style>
<g id="XMLID_1_">
	<path id="XMLID_12_" class="hamburger-svg-1" d="M4.31,8.63C1.94,8.63,0,6.69,0,4.31S1.94,0,4.31,0s4.31,1.94,4.31,4.31S6.69,8.63,4.31,8.63z
		 M4.31,2C3.04,2,2,3.04,2,4.31s1.04,2.31,2.31,2.31s2.31-1.04,2.31-2.31S5.59,2,4.31,2z"/>
	<path id="XMLID_15_" class="hamburger-svg-2" d="M5.31,26.33V21.6c1.9-0.45,3.31-2.15,3.31-4.19c0-2.38-1.94-4.31-4.31-4.31S0,15.03,0,17.41
		c0,2.03,1.42,3.73,3.31,4.19v4.74C1.42,26.79,0,28.49,0,30.52c0,2.38,1.94,4.31,4.31,4.31s4.31-1.94,4.31-4.31
		C8.63,28.49,7.21,26.79,5.31,26.33z M2,17.41c0-1.28,1.04-2.31,2.31-2.31s2.31,1.04,2.31,2.31s-1.04,2.31-2.31,2.31
		S2,18.69,2,17.41z M4.31,32.83C3.04,32.83,2,31.8,2,30.52s1.04-2.31,2.31-2.31s2.31,1.04,2.31,2.31S5.59,32.83,4.31,32.83z"/>
	<linearGradient id="XMLID_63_" gradientUnits="userSpaceOnUse" x1="4.3145" y1="13.2896" x2="4.3145" y2="8.3521">
		<stop  offset="0" style="stop-color:#C4C4C4"/>
		<stop  offset="1" style="stop-color:#E00082"/>
	</linearGradient>
	<rect id="XMLID_5_" x="3.31" y="8.35" class="hamburger-svg-3" width="2" height="4.94"/>
</g>
</svg>
