<svg width="40px" height="35px" viewBox="0 0 40 35" version="1.1" xmlns="http://www.w3.org/2000/svg" xmlns:xlink="http://www.w3.org/1999/xlink">
    <g id="V3" stroke="none" stroke-width="1" fill="none" fill-rule="evenodd">
        <g id="Artboard-Copy-10" transform="translate(-14.000000, -19.000000)">
            <g id="Group-51" transform="translate(-23.000000, -6.000000)">
                <g id="logo" transform="translate(37.000000, 25.000000)">
                    <g id="Group-53">
                        <g id="Group-23">
                            <path d="M9.29353086,28.8930833 C9.05451852,29.1171806 8.84340741,29.3779792 8.66933333,29.6732917 C7.68933333,31.3513472 8.26982716,33.4863472 9.96587654,34.4556528 C11.6619259,35.4252014 13.8305679,34.8537778 14.8241481,33.1793681 C14.9977284,32.8821111 15.1221728,32.5707569 15.2004444,32.2540556 L15.1969877,30.5903403 C15.1858765,30.5448889 15.1735309,30.4999236 15.1604444,30.4549583 L33.7471111,19.9068333 C33.8029136,19.9641944 33.8606914,20.0196111 33.9204444,20.0733264 L35.1937778,20.8088125 C35.5451358,20.9235347 35.9209383,20.9855139 36.3113086,20.9850278 C38.2727901,20.9825972 39.870321,19.4163472 39.8678519,17.4857569 C39.8742716,15.5503056 38.2883457,13.9862431 36.313284,13.9847847 C35.9668642,13.9852708 35.6315556,14.0346111 35.3145185,14.126 L33.8520494,14.9599236 C33.8177284,14.99225 33.7841481,15.0250625 33.7513086,15.0588472 L15.1678519,4.48228472 C15.1804444,4.43999306 15.1920494,4.39745833 15.2031605,4.35468056 L15.2147654,2.69096528 C15.1367407,2.36964583 15.0108148,2.05367361 14.8345185,1.75252778 C13.853037,0.0766597222 11.6836543,-0.496951389 9.9814321,0.469194444 C8.27896296,1.43534028 7.69624691,3.57082639 8.6777284,5.24669444 C8.85303704,5.54613889 9.06637037,5.81034028 9.30834568,6.03686806 L10.7755062,6.86301389 C10.8211852,6.87589583 10.867358,6.88804861 10.9137778,6.89898611 L10.9001975,28.0292639 C10.853037,28.0404444 10.8063704,28.0528403 10.7599506,28.0659653 M32.7567407,17.4840556 C32.7572346,17.8250625 32.8071111,18.1551319 32.8999506,18.4669722 L14.3201975,29.0114514 C14.0925432,28.7761736 13.827358,28.5683611 13.5276049,28.3967639 C13.2266173,28.226625 12.9110617,28.104125 12.5900741,28.0270764 L12.6039012,6.89777083 C12.9211852,6.82072222 13.233284,6.69870833 13.5308148,6.52978472 C13.8295802,6.360375 14.0937778,6.15499306 14.3211852,5.92214583 L32.8999506,16.4960347 C32.8063704,16.8093333 32.7562469,17.1411042 32.7567407,17.4840556" id="Fill-1" fill="#E00083"></path>
                            <path d="M6.0234321,19.9784861 C6.69479012,19.3421667 7.1125679,18.4494236 7.11133333,17.4614028 C7.11009877,16.4745972 6.69503704,15.5835556 6.0271358,14.9474792 L4.56861728,14.1065069 C4.24812346,14.0126875 3.90837037,13.9616458 3.55651852,13.9604306 C1.59528395,13.9628611 -0.00249382716,15.5291111 -2.46913581e-05,17.4597014 C0.00244444444,19.3902917 1.59355556,20.9631042 3.55479012,20.9606736 C3.90491358,20.9601875 4.2434321,20.909875 4.5634321,20.8165417" id="Fill-3" fill="#000000" opacity="0.200000003"></path>
                            <path d="M29.2015802,28.1074549 C28.2828148,27.8189479 27.2487407,27.898184 26.3457778,28.4105451 C25.4739259,28.9054062 24.8959012,29.7070035 24.670963,30.5963437 L24.6645432,32.260059 C24.7428148,32.5777326 24.8677531,32.890059 25.042321,33.1880451 C26.0238025,34.8639132 28.1929383,35.4375243 29.8954074,34.4713785 C31.5978765,33.5052326 32.1754074,31.3609965 31.1991111,29.6938785 C31.0035556,29.3601632 30.7608395,29.0699549 30.4842963,28.8271424 L29.2015802,28.1074549 Z" id="Fill-6" fill="#000000" opacity="0.200000003"></path>
                            <path d="M24.6924198,4.3605625 C24.9178519,5.24625694 25.4929136,6.04420833 26.3580988,6.53858333 C27.226,7.03490278 28.2200741,7.12604861 29.1158765,6.87327083 L30.5845185,6.0493125 C30.8267407,5.82351389 31.0405679,5.56028472 31.2163704,5.26229861 C32.1961235,3.584 31.6158765,1.44924306 29.9198272,0.479694444 C28.2148889,-0.48475 26.0462469,0.0866736111 25.0613086,1.75622222 C24.8850123,2.05809722 24.7593333,2.37479861 24.6815556,2.69684722 L24.6924198,4.3605625 Z" id="Fill-9" fill="#000000" opacity="0.200000003"></path>
                        </g>
                    </g>
                </g>
            </g>
        </g>
    </g>
</svg>