<svg width="38px" height="43px" viewBox="0 0 38 43" version="1.1" xmlns="http://www.w3.org/2000/svg" xmlns:xlink="http://www.w3.org/1999/xlink">
    <desc>Created with Sketch.</desc>
    <defs>
        <polygon id="path-1" points="38 2.97577856e-05 38 42.9202045 4.45312498e-05 42.9202045 4.45312498e-05 2.97577856e-05 38 2.97577856e-05"></polygon>
    </defs>
    <g id="V3" stroke="none" stroke-width="1" fill="none" fill-rule="evenodd">
        <g id="Artboard-Copy-10" transform="translate(-905.000000, -1272.000000)">
            <g id="Group-35" transform="translate(-37.000000, 1206.000000)">
                <g id="Group-24">
                    <g id="Group-18">
                        <g id="Group-33">
                            <g id="Group-32" transform="translate(0.000000, 57.000000)">
                                <g id="Group-31" transform="translate(0.000000, 8.000000)">
                                    <g id="Group-16" transform="translate(435.000000, 0.000000)">
                                        <g id="Group-17">
                                            <g id="Group-25" transform="translate(388.000000, 1.000000)">
                                                <g id="Group-52">
                                                    <g id="Group-22" transform="translate(119.000000, 0.000000)">
                                                        <mask id="mask-2" fill="#63A85A">
                                                            <use xlink:href="#path-1"></use>
                                                        </mask>
                                                        <g id="Clip-2"></g>
                                                        <path d="M23.8385133,30.4207443 C16.9544273,30.4207443 15.5383336,27.2662702 15.5383336,24.584945 C15.5383336,24.3483706 15.7350133,24.1117962 16.0103648,24.1117962 L18.0558336,24.1117962 C18.2919977,24.1117962 18.4886773,24.2695125 18.4886773,24.5060869 C18.8033648,26.5959761 19.7080914,27.6211318 23.8778492,27.6211318 C27.1822164,27.6211318 28.5983102,26.8719796 28.5983102,25.0976716 C28.5983102,24.0723671 28.2049508,23.3232149 23.0517945,22.810637 C18.7640289,22.3769173 16.0890367,21.4306197 16.0890367,18.0001422 C16.0890367,14.8062391 18.7640289,12.9134952 23.2484742,12.9134952 C28.2836227,12.9134952 30.7619352,14.6485228 31.0766227,18.4338619 C31.0766227,18.5521491 31.0372867,18.6704363 30.9586148,18.7887235 C30.879943,18.8675817 30.7619352,18.9464398 30.6439273,18.9464398 L28.5983102,18.9464398 C28.4016305,18.9464398 28.2049508,18.7887235 28.1656148,18.5915782 C27.6935836,16.4228308 26.4741695,15.7131076 23.2484742,15.7131076 C19.6294195,15.7131076 19.1967242,16.9748377 19.1967242,17.9212841 C19.1967242,19.064727 19.7080914,19.4195886 24.5858961,20.0504536 C29.4243648,20.6813187 31.7059977,21.588336 31.7059977,24.9793844 C31.6666617,28.4491422 28.8343258,30.4207443 23.8385133,30.4207443 M19.0000445,42.9202045 C18.4100055,42.9202045 17.8591539,42.7624882 17.3477867,42.4864848 L12.1159586,39.3714398 C11.3292398,38.9377201 11.7225992,38.7800038 11.9586148,38.7011457 C13.0206852,38.3462841 13.2173648,38.267426 14.3189195,37.6365609 C14.4369273,37.5577028 14.5942711,37.5971318 14.7122789,37.67599 L18.724693,40.0813118 C18.8820367,40.1601699 19.0787164,40.1601699 19.1967242,40.0813118 L34.892357,30.9727512 C35.0497008,30.8938931 35.1283727,30.7361768 35.1283727,30.5390315 L35.1283727,12.3614882 C35.1283727,12.1643429 35.0497008,12.0066266 34.892357,11.9277685 L19.1967242,2.85878581 C19.0393805,2.77992768 18.8427008,2.77992768 18.724693,2.85878581 L3.02906016,11.9277685 C2.87156797,12.0066266 2.79289609,12.203772 2.79289609,12.3614882 L2.79289609,30.5390315 C2.79289609,30.6967478 2.87156797,30.8938931 3.02906016,30.9727512 L7.31682578,33.4569311 C9.63764609,34.6398031 11.0932242,33.2597858 11.0932242,31.8796197 L11.0932242,13.9387997 C11.0932242,13.7022253 11.2899039,13.4656509 11.5652555,13.4656509 L13.5713883,13.4656509 C13.8074039,13.4656509 14.0434195,13.6627962 14.0434195,13.9387997 L14.0434195,31.8796197 C14.0434195,34.9946647 12.3519742,36.8085505 9.40163047,36.8085505 C8.49690391,36.8085505 7.78885703,36.8085505 5.78257578,35.8226751 L1.65215391,33.4569311 C0.629419531,32.8654952 4.45312498e-05,31.7613325 4.45312498e-05,30.5784606 L4.45312498e-05,12.4009173 C4.45312498e-05,11.2180453 0.629419531,10.1140315 1.65215391,9.5225955 L17.3477867,0.414034948 C18.3313336,-0.137971972 19.6687555,-0.137971972 20.6521539,0.414034948 L36.3477867,9.5225955 C37.3706695,10.1140315 38.0000445,11.2180453 38.0000445,12.4009173 L38.0000445,30.5784606 C38.0000445,31.7613325 37.3706695,32.8654952 36.3477867,33.4569311 L20.6521539,42.5653429 C20.1407867,42.8019173 19.5507477,42.9202045 19.0000445,42.9202045" id="Fill-1" fill="#63A85A" mask="url(#mask-2)"></path>
                                                    </g>
                                                </g>
                                            </g>
                                        </g>
                                    </g>
                                </g>
                            </g>
                        </g>
                    </g>
                </g>
            </g>
        </g>
    </g>
</svg>