
<svg width="64px" height="60px" viewBox="0 0 64 60" version="1.1" xmlns="http://www.w3.org/2000/svg" xmlns:xlink="http://www.w3.org/1999/xlink">
    <!-- Generator: Sketch 44.1 (41455) - http://www.bohemiancoding.com/sketch -->
    <desc>Created with Sketch.</desc>
    <defs></defs>
    <g id="V3" stroke="none" stroke-width="1" fill="none" fill-rule="evenodd">
        <g id="Artboard-Copy-10" transform="translate(-568.000000, -1263.000000)" fill="#00D8FF">
            <g id="Group-35" transform="translate(-37.000000, 1206.000000)">
                <g id="Group-24">
                    <g id="Group-18">
                        <g id="Group-33">
                            <g id="Group-32" transform="translate(0.000000, 57.000000)">
                                <g id="Group-42" transform="translate(605.000000, 0.000000)">
                                    <g id="Group-9">
                                        <g id="Group-8">
                                            <path d="M37.3135427,30.0629413 C37.3135427,33.3271552 34.7820417,35.9734234 31.659395,35.9734234 C28.5367484,35.9734234 26.0052473,33.3271552 26.0052473,30.0629413 C26.0052473,26.7987274 28.5367484,24.1524592 31.659395,24.1524592 C34.7820417,24.1524592 37.3135427,26.7987274 37.3135427,30.0629413 Z" id="Fill-1"></path>
                                            <path d="M22.8234072,24.7952051 C19.1816343,31.3964432 16.4943729,38.4778999 15.4505979,44.2240285 C14.5488331,49.1884471 14.7233027,54.8515153 17.1457039,56.3119642 C18.9627583,57.4073008 23.3456892,56.3683981 28.6747913,51.4988215 C32.5873979,47.9236909 36.6749251,42.3736083 40.4953378,35.4483758 C44.0768127,28.9563532 46.6311931,22.4279255 47.6880421,17.0658775 C48.3640558,13.6351894 48.5138427,10.523783 48.1210605,8.06790567 C47.7830537,5.95416636 47.0565475,4.46438132 46.0753246,3.87294431 C45.152709,3.31685215 43.6529235,3.39154758 41.8520988,4.08371738 C39.766352,4.88522056 37.4112367,6.44852287 35.0411314,8.60467599 C30.7877003,12.4741114 26.4487249,18.2241279 22.8234072,24.7952051 L22.8234072,24.7952051 Z M18.8151127,59.5369453 C17.6695637,59.5369453 16.6520493,59.2784567 15.7943528,58.7613616 C12.5562946,56.8091482 11.434414,51.1774191 12.793091,43.6965657 C13.9074203,37.5627042 16.6372848,30.3483509 20.4801261,23.3825896 L20.4802388,23.3825896 C24.2511733,16.5472508 28.7917807,10.5414555 33.2653276,6.47161483 C35.8809077,4.09220014 38.527482,2.34875695 40.9187761,1.42979109 C43.5227474,0.428943007 45.7731584,0.4267045 47.4266757,1.42342902 C50.7928811,3.45269415 51.9083375,9.66513903 50.3373214,17.636461 C49.223781,23.2865695 46.5606388,30.1140146 42.8386189,36.8611091 C38.8712369,44.0524882 34.5890656,49.8503381 30.454878,53.6277591 C27.770885,56.0803376 25.0157743,57.8699647 22.4874291,58.803422 C21.1629021,59.2924768 19.9285404,59.5368274 18.8151127,59.5369453 L18.8151127,59.5369453 Z" id="Fill-6"></path>
                                            <path d="M31.6593725,19.4594772 C24.3696279,19.4594772 17.1586651,20.5637679 11.8753218,22.4891192 C7.31082074,24.152683 2.70495634,27.1396755 2.70495634,30.0629295 C2.70495634,31.2356713 3.54428175,32.6328529 5.06829923,33.9971638 C6.84725884,35.5896845 9.40085033,37.0078373 12.4531681,38.0983435 C17.3705533,39.8554533 24.0120101,40.7841979 31.6593725,40.7841979 C38.8286338,40.7841979 45.5147224,39.8358958 50.4862067,38.1141308 C57.4445942,35.7040839 60.6137886,32.2511286 60.6137886,30.0629295 C60.6137886,28.949567 59.8025272,27.6287303 58.3293403,26.3438275 C56.6231891,24.8555741 54.1509717,23.5038696 51.1802534,22.4348059 C45.8487845,20.5161701 38.9162068,19.4594772 31.6593725,19.4594772 M31.6593725,43.6117852 C23.7179588,43.6117852 16.7739978,42.6304946 11.5783402,40.7740657 C8.20503422,39.5688067 5.34544455,37.9680388 3.30883784,36.1448341 C1.14419653,34.2069943 0,32.1038584 0,30.0629295 C0,26.1554395 4.10657454,22.3260616 10.9848277,19.8191699 C16.6247743,17.7638674 23.9671529,16.6318899 31.6593725,16.6318899 C39.208004,16.6318899 46.4533422,17.7432496 52.0607167,19.7612043 C55.3392365,20.9410151 58.1061814,22.4664985 60.0624284,24.1728296 C62.1928069,26.0309079 63.318745,28.0677132 63.318745,30.0629295 C63.318745,34.1249943 58.7276451,38.2385447 51.3370282,40.7982181 C46.0983167,42.6127044 39.110062,43.6117852 31.6593725,43.6117852" id="Fill-3"></path>
                                            <path d="M22.8318827,35.4638333 C26.4843627,42.058945 31.0114453,48.0291599 35.2522533,51.8439286 C38.9164548,55.1400706 43.697127,57.8100199 46.1171612,56.3456831 C47.9325251,55.2471655 49.2602078,50.7589598 47.8859773,43.5008967 C46.8769158,38.1717194 44.3182526,31.6981939 40.4869073,24.7797947 C36.8947253,18.2938986 32.7598614,12.720135 28.8436482,9.08538939 C26.337957,6.75969885 23.8341818,5.07009764 21.6025928,4.19943639 C19.6819611,3.45000794 18.0843462,3.36376653 17.104025,3.95708859 C16.1821984,4.514948 15.4952522,5.91059795 15.1694177,7.88708146 C14.792189,10.1763668 14.9116579,13.0900777 15.5149758,16.3131737 C16.5976346,22.0975926 19.196196,28.8987647 22.8318827,35.4639511 L22.8318827,35.4638333 Z M44.4965543,59.5692504 C41.432515,59.5692504 37.5394066,57.6316463 33.4879455,53.9872397 C28.960863,49.9150428 24.3451931,43.8398537 20.4908557,36.8805723 L20.4908557,36.8804545 C16.7089887,30.0514778 13.9989605,22.939978 12.8602866,16.8561883 C12.1945292,13.2990835 12.0712283,10.0315708 12.5037959,7.4069807 C12.9747964,4.54876123 14.0970152,2.50959954 15.7488419,1.50992962 C19.1121169,-0.52522632 24.8178842,1.56730608 30.6396265,6.97094318 C34.7662628,10.801028 39.0947565,16.6225589 42.8277089,23.3631735 C46.806587,30.5474837 49.4732231,37.3212047 50.5394267,42.9518735 C51.2315574,46.6074725 51.3390794,49.9964537 50.8499332,52.752291 C50.330018,55.6815536 49.1621531,57.770198 47.4723444,58.7928421 C46.6110412,59.3140607 45.6082913,59.5692504 44.4965543,59.5692504 L44.4965543,59.5692504 Z" id="Fill-8"></path>
                                        </g>
                                    </g>
                                </g>
                            </g>
                        </g>
                    </g>
                </g>
            </g>
        </g>
    </g>
</svg>