<svg width="46px" height="26px" viewBox="0 0 46 26" version="1.1" xmlns="http://www.w3.org/2000/svg" xmlns:xlink="http://www.w3.org/1999/xlink">
    <g id="V3" stroke="none" stroke-width="1" fill="none" fill-rule="evenodd">
        <g id="Artboard-Copy-10" transform="translate(-453.000000, -1279.000000)" fill="rgb(242, 107, 0)">
            <g id="Group-35" transform="translate(-37.000000, 1206.000000)">
                <g id="Group-24">
                    <g id="Group-18">
                        <g id="Group-33">
                            <g id="Group-32" transform="translate(0.000000, 57.000000)">
                                <g id="Group-31" transform="translate(0.000000, 8.000000)">
                                    <g id="Group-16" transform="translate(435.000000, 0.000000)">
                                        <g id="Group-17">
                                            <g id="Group-43">
                                                <g id="Group-10">
                                                    <path d="M64.013223,12.5959112 C64.013223,14.7547238 62.1215441,16.50405 59.7886387,16.50405 C57.455025,16.50405 55.5638772,14.7547238 55.5638772,12.5959112 C55.5638772,10.4370986 57.4548479,8.68777241 59.7884616,8.68777241 C62.1216326,8.68777241 64.013223,10.4370986 64.013223,12.5959112" id="Shape"></path>
                                                    <path d="M96.1175853,30.2338853 L72.4754939,30.2338853 C69.3548611,30.2338853 66.8162152,27.8855624 66.8162152,24.9987647 C66.8162152,22.1119671 69.3550382,19.7633984 72.4754939,19.7633984 L83.1679771,19.7633984 C85.0107883,19.7633984 86.510197,18.3762221 86.510197,16.6712843 C86.510197,14.9663464 85.0106998,13.5791701 83.1679771,13.5791701 L59.7881075,13.5791701 C59.1483114,13.5791701 58.6296223,13.099252 58.6296223,12.507544 C58.6296223,11.9156723 59.1483999,11.4358361 59.788019,11.4358361 L83.1678001,11.4358361 C86.2884329,11.4358361 88.8268132,13.7844866 88.8268132,16.6712024 C88.8268132,19.5579181 86.2883444,21.906323 83.1678001,21.906323 L72.4753169,21.906323 C70.6321516,21.906323 69.1328314,23.2934993 69.1328314,24.9987647 C69.1328314,26.7035388 70.6323287,28.0906332 72.4753169,28.0906332 L96.1175853,28.0906332 C96.7573814,28.0906332 97.2760704,28.5705513 97.2760704,29.1622593 C97.2760704,29.7540491 96.7574699,30.2338853 96.1176738,30.2338853 L96.1175853,30.2338853 Z" id="Shape"></path>
                                                    <path d="M91.893355,29.1624231 C91.893355,27.0036104 93.7843257,25.2542843 96.1179394,25.2542843 C98.4515531,25.2542843 100.342524,27.0036104 100.342524,29.1624231 C100.342524,31.3212357 98.4515531,33.0705618 96.1179394,33.0705618 C93.7843257,33.0705618 91.893355,31.3212357 91.893355,29.1624231" id="Shape"></path>
                                                </g>
                                            </g>
                                        </g>
                                    </g>
                                </g>
                            </g>
                        </g>
                    </g>
                </g>
            </g>
        </g>
    </g>
</svg>