
<svg width="141px" height="43px" viewBox="0 0 141 43" version="1.1" xmlns="http://www.w3.org/2000/svg" xmlns:xlink="http://www.w3.org/1999/xlink">
    <!-- Generator: Sketch 44.1 (41455) - http://www.bohemiancoding.com/sketch -->
    <desc>Created with Sketch.</desc>
    <defs></defs>
    <g id="V3" stroke="none" stroke-width="1" fill="none" fill-rule="evenodd" opacity="0.300000012">
        <g id="Artboard-Copy-10" transform="translate(-991.000000, -1272.000000)" fill-rule="nonzero" fill="#FFFFFF">
            <g id="Group-35" transform="translate(-37.000000, 1206.000000)">
                <g id="Group-24">
                    <g id="Group-18">
                        <g id="Group-33">
                            <g id="Group-32" transform="translate(0.000000, 57.000000)">
                                <g id="Group-31" transform="translate(0.000000, 8.000000)">
                                    <g id="Group-16" transform="translate(435.000000, 0.000000)">
                                        <g id="Group-17">
                                            <g id="Group-25" transform="translate(388.000000, 1.000000)">
                                                <g id="Group-52">
                                                    <g id="Group-21" transform="translate(16.000000, 0.000000)">
                                                        <g id="Group-20" transform="translate(189.000000, 0.000000)">
                                                            <path d="M23.7439205,3.23448529 C26.9542486,1.56507353 29.309879,-0.479955882 31.3528151,0.125205882 C33.6875992,0.813838235 33.4791363,2.52498529 31.9782037,4.34047059 C30.6857339,5.88467647 31.0818134,10.4129559 31.4570465,12.4997206 C31.9782037,15.4003235 32.2075128,15.7968088 34.6465284,18.3426618 C36.147461,19.9077353 37.8360102,22.704 38.5656303,27.8374412 C39.0242486,31.1136618 38.107012,34.6194265 35.3344558,38.7303529 C34.0002935,40.7127794 31.3945077,42.1735147 29.163955,42.4030588 C25.8285491,42.7369412 22.3055267,42.4030588 18.907582,42.4030588 C15.1760967,42.4030588 12.4869257,41.1092647 10.840069,37.4991618 C8.85967182,33.1378235 7.71312605,28.38 9.65183071,23.4969706 C11.3820725,19.1147647 11.9866148,18.8852206 13.4458549,16.9445294 C14.3630915,15.6924706 15.634715,14.0856618 15.5930224,12.5205882 C15.5304835,8.74354412 13.7168566,8.43052941 16.072487,6.30202941 C18.1988082,4.34047059 21.3049049,4.50741176 23.7439205,3.23448529 Z" id="XMLID_33_"></path>
                                                            <path d="M15.5930224,15.8594118 C15.9057167,14.1273971 12.0283074,11.9154265 10.4856822,11.4354706 C7.85905006,10.6425 5.21157166,11.5398088 3.00186527,13.0631471 C1.00062176,14.4404118 0.0625388599,16.6941176 0.104231433,19.0521618 C0.145924006,21.5980147 2.35563039,23.4135 4.25264247,24.8742353 C6.25388599,26.3975735 8.4218998,27.7122353 10.5065285,29.1103676 C11.1527633,28.1504559 11.2361485,26.8566618 11.1319171,25.7298088 C7.92158892,25.4585294 2.10547495,20.9511176 2.85594127,17.2784118 C3.23117443,15.4420588 5.69103625,14.0856618 7.42127804,13.8561176 C9.69352328,13.5639706 11.4237651,14.8995 13.091468,16.3393676 C13.6960103,16.8819265 14.5090155,17.8418382 14.8842487,18.2383235 L15.5930224,15.8594118 Z" id="XMLID_32_"></path>
                                                            <path d="M30.8108116,15.1290441 C30.8108116,15.1290441 32.6035923,19.0938971 33.7084455,20.8259118 C34.980069,22.8292059 35.855613,24.6864265 36.2308462,27.0027353 C36.9187736,31.2597353 35.2510707,37.4991618 31.2485837,39.8780735 C29.1848013,41.1092647 27.0167875,40.0032794 24.6194645,39.8780735 C22.0762175,39.7528676 21.1589809,39.9615441 18.6782728,40.3580294 C16.0516407,40.79625 13.8627806,39.0851029 12.7162348,36.8731324 C11.6947668,34.9115735 11.4029188,33.8055882 11.1110708,31.57275 C10.6524525,28.2756618 11.1736096,25.2915882 11.8615371,23.2882941 C12.3201554,21.9527647 13.6543177,19.8033971 14.3630915,18.5722059 C15.3637132,16.8193235 16.6144904,14.8995 16.6144904,14.8995 C17.7610362,14.19 19.6163557,14.8577647 20.8045941,15.1081765 C22.472297,15.4629265 24.1399999,15.9428824 25.8493954,16.0680882 C26.4122452,16.0889559 28.580259,16.4437059 30.8108116,15.1290441 Z" id="XMLID_31_"></path>
                                                            <path d="M15.7597927,28.5052059 C16.1558721,28.2130588 16.5936442,27.9835147 17.0314162,27.8165735 C17.4900345,27.6496324 17.9694991,27.5452941 18.4281174,27.4826912 C18.907582,27.4409559 19.3870466,27.4618235 19.8665112,27.5244265 C20.3459757,27.6078971 20.8045941,27.7331029 21.2423661,27.9209118 C21.6801381,28.1087206 22.0762175,28.4008676 22.4514507,28.7138824 C22.8058376,29.0060294 23.1393782,29.3607794 23.4312262,29.7572647 C23.7230742,30.15375 23.9523833,30.5711029 24.1191536,31.0093235 C24.2859239,31.4684118 24.3901554,31.9275 24.4318479,32.4074559 C24.4735405,32.8874118 24.4735405,33.3673676 24.4110016,33.8473235 C24.3276165,34.3272794 24.1816925,34.7655 23.9940759,35.2245882 C23.8064593,35.6628088 23.5563039,36.0801618 23.2436096,36.4557794 C22.9517616,36.8105294 22.618221,37.1861471 22.2221415,37.4574265 C21.8260621,37.7495735 21.3882901,37.9791176 20.9505181,38.1460588 C20.4918998,38.313 20.0124352,38.3964706 19.5538169,38.4382059 C19.0743523,38.4799412 18.5948877,38.5008088 18.1154231,38.4173382 C17.6359585,38.3338676 17.1773402,38.1877941 16.7395682,37.9999853 C16.3017961,37.8121765 15.8848704,37.5826324 15.488791,37.2696176 C15.1135578,36.9774706 14.8008635,36.6227206 14.5090155,36.2053676 C14.2171675,35.8088824 13.967012,35.3915294 13.8002417,34.9533088 C13.6334715,34.4942206 13.5500863,34.0142647 13.4875474,33.5551765 C13.4458549,33.0752206 13.4667012,32.5952647 13.5500863,32.1153088 C13.6334715,31.6353529 13.7168566,31.1553971 13.9044732,30.7171765 C14.0920898,30.2789559 14.3839378,29.8824706 14.6757858,29.5068529 C15.0301727,29.1521029 15.3637132,28.7973529 15.7597927,28.5052059 Z" id="XMLID_30_"></path>
                                                            <path d="M16.0307944,28.8808235 C16.4685664,28.5678088 16.9688773,28.38 17.4691882,28.2130588 C17.9694991,28.0461176 18.4906562,27.9835147 19.0118134,27.9835147 C19.5329706,27.9835147 20.074974,27.9835147 20.5752849,28.1295882 C21.0755958,28.2965294 21.5967529,28.4843382 22.0136787,28.7973529 C22.4306044,29.1103676 22.764145,29.5485882 23.0768393,29.9868088 C23.3895336,30.4250294 23.6188427,30.9049853 23.785613,31.4058088 C23.9523833,31.9066324 23.9523833,32.4283235 23.931537,32.9708824 C23.931537,33.4925735 24.0149222,34.056 23.8481519,34.5568235 C23.6813816,35.0576471 23.4520725,35.5584706 23.1393782,35.9966912 C22.8266839,36.4140441 22.3889118,36.7479265 21.9511398,37.0609412 C21.5133678,37.3739559 21.0130569,37.5617647 20.5335923,37.7078382 C20.0332814,37.8747794 19.5121243,37.9999853 18.9909671,37.9999853 C18.46981,37.9999853 17.9278065,37.95825 17.4274956,37.7913088 C16.9271847,37.6243676 16.4060276,37.4365588 15.9891018,37.1235441 C15.5721761,36.8105294 15.1552504,36.4349118 14.8425561,35.9966912 C14.5298618,35.5584706 14.4256303,34.9950441 14.2588601,34.5150882 C14.0920898,34.0142647 13.9878583,33.4925735 13.9878583,32.9708824 C13.9878583,32.4491912 14.0295509,31.9066324 14.1963212,31.4058088 C14.3630915,30.9049853 14.6757858,30.4667647 14.9884801,30.0494118 C15.2594818,29.6320588 15.5930224,29.1938382 16.0307944,28.8808235 Z" id="XMLID_29_"></path>
                                                            <path d="M15.342867,35.2871912 C15.7181001,35.2245882 18.4072711,33.4299706 18.3864248,33.0752206 C18.3864248,33.0752206 15.0927115,32.4909265 14.7383246,32.5743971 C14.3630915,32.637 14.9467875,35.3706618 15.342867,35.2871912 Z" id="XMLID_28_"></path>
                                                            <path d="M18.5948877,32.8456765 C18.2821934,32.2613824 16.8646459,29.5903235 16.510259,29.4859853 C16.1558721,29.3607794 14.4464766,31.6770882 14.7383246,31.9483676 C15.0301727,32.2196471 18.761658,33.1795588 18.5948877,32.8456765 Z" id="XMLID_27_"></path>
                                                            <path d="M21.1381346,36.5601176 C21.1172884,35.9340882 19.4287391,33.4717059 19.0118134,33.5551765 C18.5948877,33.6177794 18.4281174,36.7479265 18.6782728,37.2904853 C18.8658894,37.6452353 21.1589809,37.2070147 21.1381346,36.5601176 Z" id="XMLID_26_"></path>
                                                            <path d="M17.9278065,36.9983382 C18.2196545,36.7479265 18.8033505,33.7221176 18.5948877,33.5969118 C18.3864248,33.4717059 15.7597927,35.4123971 15.6138687,35.7880147 C15.488791,36.1636324 17.4274956,37.4365588 17.9278065,36.9983382 Z" id="XMLID_25_"></path>
                                                            <path d="M22.7849913,31.1553971 C21.4925215,31.7188235 19.4287391,32.6996029 19.491278,32.9500147 C19.5329706,33.0960882 22.5139896,33.5134412 23.0976856,33.70125 C23.7647668,33.9099265 23.2853022,30.9258529 22.7849913,31.1553971 Z" id="XMLID_24_"></path>
                                                            <path d="M19.4078928,33.2630294 C19.2202763,33.5760441 21.0547495,35.4123971 21.742677,36.2262353 C21.9928324,36.5183824 23.5146113,34.8698382 23.1810707,34.3481471 C22.8058376,33.7638529 19.5955094,32.9500147 19.4078928,33.2630294 Z" id="XMLID_23_"></path>
                                                            <path d="M17.0105699,29.1729706 C17.4483419,30.15375 18.4906562,32.6787353 18.907582,32.7622059 C19.3245077,32.8456765 19.8248186,29.2773088 19.4495854,28.7973529 C19.0743523,28.2965294 16.7395682,28.5886765 17.0105699,29.1729706 Z" id="XMLID_22_"></path>
                                                            <path d="M19.4495854,32.3031176 C19.3870466,32.5535294 19.3036614,32.6787353 19.5746631,32.5117941 C19.8665112,32.3448529 21.5342141,31.4475441 21.9094472,31.2597353 C22.2846804,31.0719265 22.9934541,30.6337059 22.3055267,29.8616029 C21.6384455,29.0895 20.8879792,28.8599559 20.4085146,28.7973529 C19.92905,28.73475 19.9082037,29.2773088 19.8665112,29.6737941 C19.8456649,30.0494118 19.5746631,31.8231618 19.4495854,32.3031176 Z" id="XMLID_21_"></path>
                                                            <path d="M32.3742831,21.5354118 C32.5410534,21.9527647 32.6661311,22.3701176 32.7078237,22.7874706 C32.7703626,23.2256912 32.7495163,23.6639118 32.7078237,24.0812647 C32.6452849,24.5194853 32.5202071,24.9368382 32.3534368,25.3333235 C32.1866666,25.7298088 31.9782037,26.1262941 31.707202,26.4601765 C31.4362002,26.7940588 31.1026596,27.0862059 30.7691191,27.3574853 C30.4355785,27.6078971 30.0603453,27.8165735 29.6434196,27.9835147 C29.2264938,28.1504559 28.8095681,28.2756618 28.3926424,28.3382647 C27.9548704,28.4008676 27.5170983,28.38 27.1001726,28.3173971 C26.6624006,28.2547941 26.2454749,28.1504559 25.8493954,27.9835147 C25.453316,27.8165735 25.0780828,27.5870294 24.7445422,27.31575 C24.4110016,27.0444706 24.0983073,26.7523235 23.8273056,26.3975735 C23.5771502,26.0636912 23.3269947,25.6880735 23.1602244,25.2915882 C22.9934541,24.8742353 22.8892227,24.4568824 22.8266839,24.0395294 C22.764145,23.6013088 22.8058376,23.1630882 22.8683764,22.7457353 C22.9309153,22.3075147 23.0143004,21.8901618 23.1810707,21.4936765 C23.347841,21.0971912 23.5771502,20.7215735 23.8481519,20.3876912 C24.1191536,20.0538088 24.3901554,19.7199265 24.7445422,19.4486471 C25.0780828,19.1982353 25.4741623,18.9895588 25.8702417,18.8226176 C26.2871674,18.6556765 26.7040932,18.5304706 27.1210189,18.4678676 C27.5587909,18.4052647 27.9965629,18.447 28.4134887,18.4887353 C28.8512607,18.5513382 29.2473401,18.6765441 29.6642659,18.8434853 C30.0603453,19.0104265 30.4564248,19.1982353 30.8108116,19.4486471 C31.1443522,19.7199265 31.4362002,20.0329412 31.707202,20.3876912 C31.9573574,20.7633088 32.2075128,21.1180588 32.3742831,21.5354118 Z" id="XMLID_19_"></path>
                                                            <path d="M31.9782037,21.6814853 C32.1658203,22.1405735 32.2283591,22.6205294 32.2492054,23.0796176 C32.290898,23.5595735 32.2283591,24.0186618 32.1241277,24.47775 C32.0198963,24.9368382 31.9156648,25.4167941 31.6655094,25.8132794 C31.4153539,26.2097647 31.1443522,26.6271176 30.7691191,26.9401324 C30.4147322,27.2322794 29.9561139,27.4409559 29.4974956,27.6287647 C29.0388773,27.8165735 28.580259,27.9209118 28.1216407,27.9626471 C27.6421761,28.0043824 27.1835578,27.8791765 26.7249395,27.7748382 C26.2663211,27.6705 25.7660103,27.6078971 25.3490845,27.3574853 C24.9530051,27.1070735 24.5569256,26.7940588 24.2442313,26.4184412 C23.9523833,26.0636912 23.7439205,25.6046029 23.5563039,25.1455147 C23.3686873,24.6864265 23.3269947,24.2273382 23.2853022,23.7473824 C23.2436096,23.2674265 23.2436096,22.7874706 23.347841,22.3283824 C23.4520725,21.8692941 23.6188427,21.4102059 23.8689982,20.9928529 C24.1191536,20.5963676 24.3901554,20.1790147 24.7653885,19.866 C25.1197754,19.5738529 25.5367011,19.2817059 25.9953194,19.0938971 C26.4539377,18.9060882 26.9542486,18.9269559 27.4128669,18.9060882 C27.8923315,18.8643529 28.3717961,18.8852206 28.8304144,18.9895588 C29.2890327,19.0938971 29.747651,19.2608382 30.1645767,19.51125 C30.5606562,19.7616618 30.8733505,20.1372794 31.1860448,20.4920294 C31.4778928,20.8676471 31.7905871,21.2223971 31.9782037,21.6814853 Z" id="XMLID_18_"></path>
                                                            <path d="M26.4956303,19.7199265 C26.474784,20.0746765 27.4754058,22.8083382 27.7881001,22.8709412 C27.7881001,22.8709412 28.9971847,20.0955441 29.018031,19.7616618 C29.0388773,19.4277794 26.5164766,19.3651765 26.4956303,19.7199265 Z" id="XMLID_17_"></path>
                                                            <path d="M27.9548704,23.1004853 C28.5385664,22.9544118 31.1651985,22.2657794 31.3528151,21.9736324 C31.5404317,21.6814853 29.8518824,19.6990588 29.5600344,19.9077353 C29.2681864,20.0955441 27.6421761,23.1630882 27.9548704,23.1004853 Z" id="XMLID_16_"></path>
                                                            <path d="M24.1608462,24.5403529 C24.7236959,24.6655588 27.2252503,23.6847794 27.2460966,23.3091618 C27.2877892,22.9335441 24.5569256,22.1197059 24.0357685,22.2240441 C23.6813816,22.3283824 23.5771502,24.4151471 24.1608462,24.5403529 Z" id="XMLID_15_"></path>
                                                            <path d="M24.4526942,21.63975 C24.5986182,21.9318971 27.1418652,23.1004853 27.2877892,22.9544118 C27.4337132,22.8083382 26.3080137,20.0746765 25.9953194,19.8868676 C25.7034714,19.6573235 24.1816925,21.0971912 24.4526942,21.63975 Z" id="XMLID_14_"></path>
                                                            <path d="M28.5594127,27.1279412 C28.3301035,25.8758824 27.9131778,23.8517206 27.6838686,23.8517206 C27.5587909,23.8517206 26.5373229,26.3975735 26.2663211,26.8566618 C25.9327806,27.3992206 28.6427978,27.6287647 28.5594127,27.1279412 Z" id="XMLID_13_"></path>
                                                            <path d="M27.4128669,23.7265147 C27.1835578,23.4969706 25.1823142,24.7281618 24.3276165,25.1455147 C24.0149222,25.3124559 25.1406217,27.0027353 25.6617788,26.8149265 C26.2663211,26.60625 27.6630224,23.9560588 27.4128669,23.7265147 Z" id="XMLID_12_"></path>
                                                            <path d="M31.4987391,22.4744559 C30.5606562,22.6622647 28.1216407,23.0378824 27.9548704,23.3926324 C27.7881001,23.7473824 30.8108116,24.9368382 31.3111225,24.7072941 C31.8322797,24.47775 32.0824351,22.3701176 31.4987391,22.4744559 Z" id="XMLID_11_"></path>
                                                            <path d="M28.2467184,23.9769265 C28.0382555,23.8725882 27.9548704,23.76825 28.0382555,24.0603971 C28.1216407,24.3525441 28.5594127,26.0010882 28.6427978,26.3767059 C28.726183,26.7314559 28.9554921,27.4618235 29.7684973,27.0236029 C30.5815025,26.5853824 30.9567356,25.9802206 31.1026596,25.5837353 C31.2485837,25.18725 30.7691191,25.0411765 30.4564248,24.9368382 C30.1437305,24.7907647 28.6427978,24.1647353 28.2467184,23.9769265 Z" id="XMLID_10_"></path>
                                                            <path d="M17.1148013,19.4486471 C16.510259,19.9077353 16.1350258,20.7007059 16.0307944,21.4519412 C15.8640241,22.5370588 16.2809499,23.9143235 16.9271847,24.7907647 C17.1981865,25.1455147 17.2815716,25.2915882 17.7193436,25.2915882 C18.2821934,25.2915882 18.8033505,25.1455147 19.345354,25.0411765 C19.5955094,24.9994412 20.2625906,24.9785735 20.4502072,24.7907647 C20.6378238,24.6029559 20.6169775,23.8725882 20.7003626,23.5804412 C20.8462866,22.9752794 21.0130569,22.5370588 21.4091364,22.0571029 C21.8052158,21.5771471 22.2638341,21.3684706 21.8677547,20.7007059 C21.4299827,19.9703382 20.7629015,19.1565 20.0541277,18.6765441 C19.5329706,18.3217941 18.9909671,18.3843971 18.46981,18.6139412 C17.9069602,18.8643529 17.6151122,19.0730294 17.1148013,19.4486471 Z" id="XMLID_8_"></path>
                                                            <path d="M17.8444214,24.3108088 C17.8861139,23.2048235 18.0111916,21.9736324 18.5115025,20.9719853 C18.7825043,20.4085588 19.1577374,19.8868676 19.491278,19.3651765 C19.6163557,19.1565 19.8248186,18.9060882 19.92905,18.6348088 C19.4495854,18.3635294 18.9284283,18.4052647 18.4489637,18.6139412 C17.8861139,18.8643529 17.5942659,19.0521618 17.093955,19.4277794 C16.4894127,19.8868676 16.1141796,20.6798382 16.0099481,21.4310735 C15.8431778,22.5161912 16.2601036,23.8934559 16.9063385,24.7698971 C17.1773402,25.1246471 17.2607253,25.2707206 17.6984973,25.2707206 C17.7401899,25.2707206 17.7610362,25.2707206 17.8027288,25.2707206 C17.8444214,24.9577059 17.8235751,24.6238235 17.8444214,24.3108088 Z" id="XMLID_7_"></path>
                                                            <path d="M28.5594127,35.0993824 C29.1848013,35.2663235 29.8518824,35.0785147 30.3521933,34.7237647 C31.0609671,34.2229412 31.6029705,33.1378235 31.7280482,32.1987794 C31.7697408,31.8022941 31.7905871,31.6562206 31.5404317,31.3640735 C31.2068911,30.9675882 30.7899653,30.6754412 30.4147322,30.3624265 C30.2479619,30.2163529 29.8310362,29.7363971 29.601727,29.7155294 C29.3724179,29.6946618 28.9763384,30.1120147 28.7678755,30.2163529 C28.3301035,30.4458971 27.9757167,30.5711029 27.4754058,30.5711029 C26.9542486,30.5711029 26.5581692,30.3624265 26.4330914,31.0093235 C26.2871674,31.7396912 26.2037823,32.6787353 26.3705526,33.4508382 C26.474784,34.0142647 26.8500172,34.3690147 27.2877892,34.6194265 C27.7464075,34.8489706 28.0382555,34.9533088 28.5594127,35.0993824 Z" id="XMLID_5_"></path>
                                                            <path d="M30.8941968,31.8022941 C30.2271156,32.3865882 29.455803,33.0126176 28.580259,33.2212941 C28.1007944,33.3465 27.5796372,33.3882353 27.0793263,33.4299706 C26.8917097,33.4508382 26.620708,33.4508382 26.3913989,33.5343088 C26.5164766,34.0351324 26.8708635,34.3690147 27.2877892,34.5985588 C27.7672538,34.8489706 28.0591018,34.9533088 28.5594127,35.0993824 C29.1848013,35.2663235 29.8518824,35.0785147 30.3521933,34.7237647 C31.0609671,34.2229412 31.6029705,33.1378235 31.7280482,32.1987794 C31.7697408,31.8022941 31.7905871,31.6562206 31.5404317,31.3640735 C31.5195854,31.3432059 31.4987391,31.3223382 31.4778928,31.3014706 C31.2694299,31.4475441 31.0818134,31.6353529 30.8941968,31.8022941 Z" id="XMLID_4_"></path>
                                                            <path d="M99.1657855,13.1048824 C98.5612432,12.6249265 98.5403969,12.1658382 98.8947838,11.5606765 C99.2700169,10.9346471 99.8537129,10.5172941 100.249792,9.933 C100.604179,9.41130882 101.250414,8.82701471 100.666718,8.22185294 C100.103868,7.63755882 99.3534021,7.90883824 98.6863209,8.26358824 C98.2902414,8.49313235 97.9567009,8.82701471 97.7273917,9.20263235 C97.4772363,9.57825 97.2270808,9.97473529 97.0394642,10.3920882 C96.5391534,11.4772059 95.642763,11.8319559 94.5379098,11.7693529 C93.3705178,11.70675 92.3073572,11.9571618 91.3901206,12.7501324 C90.5354228,13.5013676 89.7015714,14.2943382 89.097029,15.25425 C88.4507942,16.2767647 87.7628667,17.3201471 87.6586353,18.5930735 C87.5127113,20.6589706 88.9719513,23.0170147 90.8898097,23.8934559 C91.2650428,24.0603971 91.5985834,24.1647353 91.3901206,24.6655588 C90.8689634,25.9593529 90.8481171,27.2740147 91.2441966,28.5886765 C91.3692743,29.0268971 91.2233503,29.2773088 90.7855783,29.4233824 C90.2018822,29.6111912 89.6807251,29.9033382 89.3263382,30.4041618 C88.4299479,31.7188235 87.8670981,33.1586912 87.8254056,34.7655 C87.7628667,37.1235441 89.1178753,38.8346912 90.5562691,40.4623676 C91.494352,41.5266176 92.7451292,42.0483088 94.2043693,42.0065735 C94.5796024,41.9648382 94.9548356,41.9857059 95.3092225,41.9022353 C98.1651637,41.2344706 101.125336,38.6051471 100.249792,34.1812059 C99.9370981,32.5952647 99.3534021,31.1971324 97.8733157,30.4250294 C96.5391534,29.7363971 95.204991,29.0060294 93.6623658,28.9225588 C93.2871327,28.9016912 93.1203624,28.6930147 92.9744384,28.38 C92.369896,27.0653382 92.8076681,25.8132794 93.2037475,24.5612206 C93.2871327,24.2690735 93.5581344,24.2482059 93.8291361,24.2482059 C94.4336784,24.2482059 95.0173744,24.2899412 95.6219168,24.2273382 C96.8518477,24.0812647 98.1026249,23.9351912 98.8113986,22.7457353 C99.4576335,21.6814853 99.9996369,20.5546324 100.583333,19.4695147 C101.688186,17.4036176 100.833488,14.4195441 99.1657855,13.1048824 Z M93.8499824,30.8006471 C95.1632984,31.0719265 96.3098442,31.6979559 97.310466,32.5535294 C98.2693952,33.3882353 98.1443174,34.5568235 98.2693952,35.9132206 C98.3527803,36.7896618 97.9775471,37.6452353 97.3313123,38.5008088 C95.788687,40.4832353 93.3705178,40.1493529 91.8070463,38.66775 C90.0559582,37.0192059 89.8058028,34.9324412 90.3894988,32.6996029 C90.6605005,31.6353529 92.6617441,30.5502353 93.8499824,30.8006471 Z M96.9560791,21.8275588 C96.872694,21.9110294 96.7684625,21.9736324 96.6850774,22.0153676 C94.7255264,23.1004853 91.3275817,22.1823088 90.3061137,20.22075 C89.7641102,19.1773676 89.7015714,18.0087794 90.3478062,17.028 C91.3692743,15.4837941 92.4949738,14.0021912 94.5587561,13.7517794 C95.8512259,13.6057059 97.0394642,13.9395882 98.040086,14.6699559 C98.9990152,15.3794559 98.8739375,16.5897794 98.9990152,17.5496912 C98.9364763,19.3651765 98.2068563,20.7215735 96.9560791,21.8275588 Z" id="XMLID_7635_"></path>
                                                            <path d="M70.835682,28.2339265 C70.9607597,25.8550147 70.8148357,23.4552353 70.7522968,21.0763235 C70.7106042,18.9478235 70.5021414,16.7775882 70.1269082,14.6490882 C69.7516751,12.4997206 68.6259756,11.352 66.5830395,11.0807206 C64.1440239,10.7468382 62.038549,11.5606765 60.3708461,13.3761618 C59.8705352,13.9187206 59.9747666,14.7325588 60.5167701,15.1081765 C61.1421587,15.5463971 61.6633158,15.4003235 62.1427804,14.6908235 C63.0808633,13.3344265 64.4567182,12.9170735 65.9784972,13.0214118 C67.0833504,13.1048824 67.7921241,13.8769853 68.0422795,14.8995 C68.3549738,16.1724265 68.6051293,17.4662206 68.5634367,18.7808824 C68.5634367,19.0938971 68.584283,19.4069118 68.5634367,19.7199265 C68.5217441,20.5337647 68.3966664,20.6172353 67.6462001,20.2833529 C67.1250429,20.0538088 66.6038858,19.7825294 66.0618823,19.6781912 C63.6020205,19.2399706 62.1427804,19.5529853 60.7460792,21.9527647 C60.1206906,23.0170147 59.8288426,24.2064706 59.641226,25.4376618 C59.5578409,26.0219559 59.5995335,26.5645147 59.8079963,27.1070735 C60.4750775,28.8599559 63.1017096,30.4667647 64.9361828,30.2163529 C65.8117269,30.0911471 66.6247321,29.7572647 67.4168909,29.3399118 C68.9178236,28.5260735 68.9178236,28.5052059 68.9178236,30.2163529 C68.9178236,30.8423824 69.0429013,31.4475441 69.7308288,31.5310147 C70.4812951,31.6144853 70.7106042,31.0093235 70.8565282,30.3832941 C71.0232985,29.6529265 70.7939894,28.9434265 70.835682,28.2339265 Z M68.0214333,26.3975735 C66.8331949,27.5035588 65.6658029,28.5886765 63.9355611,27.9209118 C61.5799307,27.0236029 61.4340067,26.60625 62.1010879,24.0395294 C62.4554747,22.6413971 63.5394816,21.9318971 64.9361828,21.7023529 C66.4162692,21.4519412 67.4377372,22.1405735 68.2507424,23.2674265 C68.5425904,23.6847794 68.4592053,24.2064706 68.438359,24.7072941 C68.4175127,25.2707206 68.6051293,25.8550147 68.0214333,26.3975735 Z" id="XMLID_7632_"></path>
                                                            <path d="M51.3860965,10.7468382 C52.7411052,10.3712206 53.9084972,10.6216324 54.8465801,11.7276176 C55.346891,12.3119118 55.3885836,13.0631471 55.6178927,13.7726471 C55.7429704,14.1691324 55.9514333,14.4612794 56.222435,14.5656176 C56.6185145,14.7325588 57.0145939,14.6282206 57.4106734,14.3778088 C57.890138,14.0856618 58.1402934,13.0005441 57.6608288,12.1867059 C56.4100516,10.0790735 54.617271,8.88961765 52.4701034,8.76441176 C50.3646285,8.80614706 48.801157,9.39044118 47.5503798,10.6842353 C46.403834,11.8736912 45.5908289,13.2718235 45.0696717,14.8160294 C44.7361311,15.7968088 44.6944385,16.8819265 45.1739031,17.8209706 C45.9452157,19.3234412 46.7373746,20.7215735 48.9053884,20.6798382 C49.7600862,20.6589706 50.6564765,20.7424412 51.5320205,20.6798382 C52.65772,20.5755 53.5332641,20.93025 54.1169601,21.9318971 C54.3671155,22.34925 54.6798098,22.7248676 54.909119,23.1422206 C55.7012779,24.5820882 55.200967,25.89675 54.4505007,27.1696765 C53.7417269,28.3591324 52.6994126,28.9434265 51.3027114,28.7556176 C50.3646285,28.6304118 49.4473919,28.4426029 48.7386181,27.7539706 C48.1340758,27.1696765 48.4050775,26.4393088 48.4467701,25.7298088 C48.4884627,25.1037794 47.9881518,24.6446912 47.3627632,24.6864265 C46.5706043,24.7281618 45.8618306,25.7298088 46.0077546,26.5227794 C46.3829877,28.5678088 47.7588427,29.7363971 49.5933159,30.3832941 C50.9483245,30.86325 52.4075646,31.3432059 53.8042658,30.5711029 C55.6178927,29.5694559 56.9103625,28.02525 57.2439031,26.0010882 C57.5565974,24.2273382 57.3064419,24.0395294 56.7852848,22.3909853 C56.4517442,21.3476029 56.1182036,20.8885147 55.5553539,20.22075 C54.9716578,19.5321176 54.4088081,19.3443088 53.5541103,19.1773676 C52.3450257,18.9269559 51.1150948,19.0938971 49.9060102,19.0312941 C48.0089981,18.9478235 47.1126078,18.0087794 47.1126078,16.1306912 C47.0917615,13.83525 49.0304661,11.3937353 51.3860965,10.7468382 Z" id="XMLID_7628_"></path>
                                                            <path d="M84.6359237,20.7215735 C84.5942311,19.4277794 84.3857683,18.1548529 84.4899997,16.8401912 C84.5733848,15.7968088 83.6353019,15.3585882 82.7389116,15.9220147 C82.2177545,16.2350294 82.2386007,16.6941176 82.2177545,17.1740735 C82.1760619,19.5321176 83.0516059,21.8275588 82.5929876,24.2064706 C82.5096025,24.6029559 82.697219,25.2081176 82.259447,25.3541912 C81.821675,25.5002647 81.5506733,24.9577059 81.3213641,24.6238235 C80.2790498,23.05875 79.0491189,21.63975 77.8608805,20.1998824 C77.3188771,19.5321176 76.7560274,18.9060882 76.1723313,18.2800588 C75.4010187,17.4662206 74.3587044,17.2366765 73.8583935,17.8835735 C73.3789289,18.4887353 72.9411569,19.3025735 73.1079272,20.0538088 C73.3163901,21.0137206 73.3372364,21.9736324 73.4831604,22.9126765 C73.8583935,25.2289853 74.400397,27.5452941 74.3795507,30.1328824 C74.3587044,30.2998235 74.3378581,30.6963088 74.2961655,31.0927941 C74.2336267,31.6562206 74.5880135,31.9275 75.0257856,32.1153088 C75.5052502,32.3448529 75.8387907,32.0735735 76.1097925,31.6979559 C76.5058719,31.1136618 76.5058719,30.4876324 76.4016405,29.8198676 C75.9638685,26.961 75.9430222,24.0395294 75.130017,21.2223971 C75.0674781,21.0137206 75.0049393,20.7424412 75.275941,20.6172353 C75.4844039,20.5337647 75.6511742,20.7007059 75.7970982,20.8259118 C76.4016405,21.285 76.8185662,21.8901618 77.2980308,22.4535882 C78.8615023,24.3734118 80.6959755,26.1262941 81.4672881,28.6095441 C81.7591361,29.5485882 82.1760619,29.7155294 83.0932985,29.5068529 C84.3023831,29.2355735 84.8443866,28.73475 84.7401551,27.8165735 C84.4899997,25.4376618 84.7193088,23.0796176 84.6359237,20.7215735 Z" id="XMLID_7624_"></path>
                                                            <path d="M108.087996,21.2015294 C108.421537,20.6381029 108.817616,20.22075 109.422159,19.9286029 C110.026701,19.6573235 110.672936,19.5529853 111.319171,19.4277794 C113.966649,18.9060882 113.966649,18.9060882 115.008963,21.3476029 C115.113195,21.5771471 115.175734,21.8275588 115.53012,21.8275588 C115.947046,21.8066912 116.82259,21.0345882 116.82259,20.6172353 C116.82259,18.9060882 115.279965,16.9027941 113.508031,17.1114706 C112.569948,17.2366765 111.673557,17.4870882 110.777167,17.7166324 C110.589551,17.7583676 110.381088,17.8835735 110.214317,17.6957647 C110.026701,17.5079559 110.08924,17.2784118 110.172625,17.0488676 C110.339395,16.5897794 110.735475,16.3393676 111.006476,15.9846176 C111.381709,15.4837941 111.673557,14.8995 111.298324,14.3360735 C110.923091,13.7935147 110.297703,13.7517794 109.672314,13.9187206 C109.276234,14.0230588 109.109464,14.2943382 108.921848,14.6490882 C108.79677,14.8786324 108.275613,15.9220147 108.129689,16.1515588 C107.858687,16.5480441 107.212452,17.9253088 106.524525,19.1982353 C105.086131,21.8901618 104.002124,24.7490294 102.522038,27.4200882 C102.292728,27.9209118 101.917495,28.4634706 102.522038,28.9434265 C103.064041,29.4025147 103.877046,29.2773088 104.41905,28.6721471 C104.835975,28.2130588 105.190362,27.6913676 105.440518,27.1070735 C106.232677,25.1455147 106.983143,23.1004853 108.087996,21.2015294 Z" id="XMLID_7623_"></path>
                                                            <path d="M115.217426,10.2460147 C116.780898,10.1625441 118.031675,9.41130882 118.531986,8.95222059 C119.199067,8.34705882 119.636839,7.59582353 119.699378,7.47061765 C120.324766,6.19769118 120.47069,5.27951471 119.928687,3.75617647 C119.5743,2.81713235 118.802987,2.14936765 118.031675,1.60680882 C116.593281,0.605161765 114.883886,0.229544118 113.17449,0.813838235 C111.277478,1.48160294 109.755699,5.21691176 110.485319,7.095 C111.277478,9.03569118 113.049412,10.3503529 115.217426,10.2460147 Z M114.8005,2.50411765 C116.885129,2.52498529 118.427754,3.90225 118.406908,5.75947059 C118.406908,7.05326471 116.905975,8.47226471 115.550967,8.43052941 C113.862418,8.38879412 112.319792,6.88632353 112.340639,5.32125 C112.382331,3.92311765 113.633108,2.48325 114.8005,2.50411765 Z" id="XMLID_6803_"></path>
                                                            <path d="M127.058117,22.4535882 C126.224266,21.0137206 125.327875,19.4486471 124.389792,17.9253088 C123.61848,16.67325 122.88886,15.4003235 122.284317,14.0856618 C122.013316,13.4805 121.387927,13.2300882 120.783385,13.4178971 C120.13715,13.6057059 119.678532,14.2526029 119.866148,14.7742941 C119.97038,15.0664412 120.157996,15.3585882 120.324766,15.6298676 C121.42962,17.5079559 122.930552,19.2191029 123.681019,21.2015294 C124.368946,23.0170147 125.80734,24.5612206 126.411882,26.4184412 C126.53696,26.7731912 126.849654,27.1488088 127.412504,27.1279412 C127.975354,27.0862059 128.371433,26.7523235 128.642435,26.3767059 C128.89259,26.0219559 128.704974,25.6463382 128.475664,25.3541912 C127.787737,24.47775 127.412504,23.5387059 127.058117,22.4535882 Z" id="XMLID_6802_"></path>
                                                            <path d="M140.024507,26.6479853 C140.212124,21.9945 140.337202,16.9027941 138.711191,11.2059265 C138.273419,9.64085294 137.126873,8.59747059 136.105405,8.18011765 C134.854628,7.67929412 133.520466,7.84623529 132.248842,8.26358824 C132.20715,8.28445588 132.144611,8.30532353 132.102918,8.30532353 C131.248221,8.59747059 130.581139,8.93135294 129.914058,9.45304412 C129.726442,9.59911765 129.559671,9.76605882 129.372055,9.91213235 C129.351209,9.933 129.309516,9.97473529 129.28867,9.99560294 C127.912815,11.3102647 127.495889,13.2926912 128.037892,15.1499118 C128.663281,17.3201471 130.935526,19.4069118 134.104162,18.2591912 C134.750397,18.0296471 135.12563,17.8835735 135.751019,17.5496912 C136.397253,17.1949412 136.4181,16.5897794 136.313868,16.0889559 C136.251329,15.7550735 135.834404,15.3794559 135.417478,15.3585882 C134.521088,15.3168529 134.687858,15.7342059 133.749775,16.2976324 C133.228618,16.6106471 132.144611,16.6941176 131.769378,16.5689118 C129.747288,15.9011471 129.768134,14.9203676 129.830673,13.4387647 C129.934905,11.3937353 131.540069,10.4755588 133.249464,10.0373382 C133.83316,9.89126471 134.416856,9.87039706 134.896321,9.97473529 C135.834404,10.1834118 136.147098,10.7885735 136.647409,11.6650147 C137.731416,13.5013676 139.211502,23.5178382 138.106649,27.6913676 C137.939879,28.2756618 137.835647,28.5260735 137.231105,28.1921912 C136.293022,27.6913676 135.313246,27.31575 134.250086,27.4200882 C132.561537,27.2740147 131.394145,28.0669853 130.539447,29.4025147 C129.517979,31.0093235 128.767512,32.8039412 129.28867,34.6402941 C129.914058,36.8105294 132.811692,39.1477059 135.85525,37.7078382 C136.501485,37.3948235 137.126873,37.0818088 137.752262,36.7479265 C138.231727,36.4975147 138.461036,36.6644559 138.461036,37.1861471 C138.461036,37.5826324 138.440189,37.9791176 138.461036,38.3756029 C138.481882,38.9181618 138.732037,39.3563824 139.274041,39.4189853 C139.816044,39.4815882 140.087046,39.0642353 140.23297,38.6051471 C140.337202,38.2921324 140.378894,37.9373824 140.358048,37.6035 C140.316355,33.9516618 139.836891,31.7396912 140.024507,26.6479853 Z M138.148341,33.0543529 C137.960725,34.2020735 135.104784,36.5601176 133.457927,35.9132206 C131.769378,35.2454559 131.206528,34.6402941 131.373298,33.0334853 C131.581761,31.0927941 132.832538,29.799 134.541934,29.5903235 C136.001174,29.4233824 136.980949,30.0911471 137.793955,31.1553971 C138.085803,31.5518824 138.252573,32.3657206 138.148341,33.0543529 Z" id="XMLID_7641_"></path>
                                                        </g>
                                                    </g>
                                                </g>
                                            </g>
                                        </g>
                                    </g>
                                </g>
                            </g>
                        </g>
                    </g>
                </g>
            </g>
        </g>
    </g>
</svg>