<svg width="20px" height="20px" viewBox="0 0 20 20" version="1.1" xmlns="http://www.w3.org/2000/svg" xmlns:xlink="http://www.w3.org/1999/xlink">
    <g id="Home-(Developer-Landing-Page)" stroke="none" stroke-width="1" fill="none" fill-rule="evenodd">
        <g id="Home-(with-all-playground-elements)" transform="translate(-605.000000, -5055.000000)">
            <g id="Group-85" transform="translate(7.000000, 4298.000000)">
                <g id="Group-75" transform="translate(586.000000, 746.000000)">
                    <g id="Page-1" transform="translate(12.000000, 11.000000)">
                        <path d="M12.6696782,1.78331746 C12.3726894,0.877603175 11.3908965,0.381888889 10.4767029,0.676174603 C9.56266956,0.970460317 9.06240209,1.94331746 9.35939084,2.84903175 L13.8595554,16.5683968 C14.1683981,17.414746 15.0909214,17.8901429 15.9764413,17.6376032 C16.900086,17.3741111 17.4633074,16.4020476 17.1684011,15.5031587 C17.1571879,15.4690317 12.6696782,1.78331746 12.6696782,1.78331746" id="Fill-1" fill="#EAAA00"></path>
                        <path d="M5.69684988,4.02830159 C5.39986112,3.1225873 4.41806819,2.62687302 3.50387464,2.92115873 C2.58984128,3.21544444 2.08957381,4.18830159 2.38656257,5.09401587 L6.88672717,18.813381 C7.19556984,19.6597302 8.11809317,20.135127 9.00361305,19.8825873 C9.9272577,19.6190952 10.4904791,18.6470317 10.1955728,17.7481429 C10.1843596,17.7140159 5.69684988,4.02830159 5.69684988,4.02830159" id="Fill-3" fill="#44B28A"></path>
                        <path d="M18.3338657,13.1456825 C19.247899,12.8513968 19.7481665,11.8785397 19.4511778,10.9726667 C19.154189,10.0669524 18.1723961,9.5712381 17.2583627,9.86552381 L3.41298391,14.3247302 C2.5588609,14.6307619 2.07909751,15.5448889 2.33395679,16.4223492 C2.59986906,17.3375873 3.58086105,17.8956825 4.48800632,17.6034603 C4.52244676,17.5923492 18.3338657,13.1456825 18.3338657,13.1456825" id="Fill-5" fill="#DC015B"></path>
                        <path d="M6.29861254,17.0205873 C7.19983085,16.7304286 8.36135484,16.3564603 9.60777853,15.9551905 C9.31495466,15.0621746 8.93739129,13.9110635 8.53243574,12.6758254 L5.22310956,13.7416984 L6.29861254,17.0205873 Z" id="Fill-7" fill="#4C2B47"></path>
                        <path d="M13.2714408,14.7756032 C14.52251,14.372746 15.6853155,13.9984603 16.5806068,13.7102063 C16.2876227,12.8170317 15.9102196,11.6657619 15.5051038,10.4302063 L12.1957776,11.4960794 L13.2714408,14.7756032 Z" id="Fill-9" fill="#CB1517"></path>
                        <path d="M16.0682612,6.23633333 C16.9822945,5.94204762 17.482562,4.96919048 17.1855732,4.06331746 C16.8885845,3.15760317 15.9067915,2.66188889 14.9927582,2.9561746 L1.14737938,7.41538095 C0.293256374,7.7214127 -0.186507017,8.63553968 0.0683522669,9.513 C0.334264531,10.4282381 1.31525652,10.9863333 2.22240179,10.6941111 C2.25684224,10.683 16.0682612,6.23633333 16.0682612,6.23633333" id="Fill-11" fill="#80CBDE"></path>
                        <path d="M4.03233522,10.1114444 C4.93355353,9.82128571 6.0953979,9.44715873 7.34214196,9.04588889 C6.93558454,7.80604762 6.55770079,6.6538254 6.26679918,5.76652381 L2.95683224,6.83255556 L4.03233522,10.1114444 Z" id="Fill-13" fill="#139078"></path>
                        <path d="M11.0051475,7.86646032 C12.256537,7.46360317 13.4195027,7.08915873 14.3149542,6.80090476 C13.9083968,5.56074603 13.5303529,4.40820635 13.2394512,3.52090476 L9.92948431,4.58693651 L11.0051475,7.86646032 Z" id="Fill-15" fill="#68862C"></path>
                    </g>
                </g>
            </g>
        </g>
    </g>
</svg>
