<?xml version="1.0" encoding="utf-8"?>
<!-- Generator: Adobe Illustrator 19.0.0, SVG Export Plug-In . SVG Version: 6.00 Build 0)  -->
<svg version="1.1" id="Ebene_1" xmlns="http://www.w3.org/2000/svg" xmlns:xlink="http://www.w3.org/1999/xlink" x="0px" y="0px"
	 viewBox="0 0 340 469" style="enable-background:new 0 0 340 469;" xml:space="preserve">
<style type="text/css">
	.st0{fill-rule:evenodd;clip-rule:evenodd;}
</style>
<path id="XMLID_45_" class="st0" d="M333.28,1.28c-2.39-1.39-5.32-1.54-7.84-0.39c-7.1,3.26-69.94,32.29-83.78,56.21
	c-6.4,11.04-81.97,141.95-119.8,207.49l88.74,50.89l120-207.19c13.85-23.89,7.65-92.68,6.92-100.43
	C337.24,5.08,335.67,2.64,333.28,1.28"/>
<path id="XMLID_44_" class="st0" d="M202.04,330.28l-88.72-50.91c-7.89,13.7-12.76,22.11-12.76,22.11
	c-2.35,4.08-0.95,9.31,3.14,11.66l73.79,42.48c1.97,1.12,4.3,1.43,6.5,0.84c2.2-0.59,4.07-2.03,5.19-3.97L202.04,330.28z"/>
<path id="XMLID_28_" class="st0" d="M269.61,268.17c-0.9-3.35-3.72-5.81-7.16-6.27c-3.44-0.46-6.8,1.2-8.53,4.21l-56.34,97.27
	c-0.98,1.64-1.35,3.62-1.07,5.54l11.07,74.4c0.54,3.59,3.29,6.44,6.88,7.14c1.29,0.24,2.58,0.16,3.82-0.17
	c2.13-0.57,4.03-1.96,5.19-3.97l42.85-73.99c5.76-9.94,14.27-30.49,15.15-45.03c1.04-16.78-5.25-37.27-9.4-50.83
	C271.08,273.27,270.21,270.43,269.61,268.17"/>
<path id="XMLID_16_" class="st0" d="M89.37,295.36l54.99-95.29c1.86-2.11,2.74-4.98,2-7.75c-0.09-0.35-2.3-8.26-11.55-5.78
	c-7.28,1.95-44.38,12.21-59.46,22.12c-11.97,7.93-25.04,25.84-30.91,35.97L1.61,318.63c-1.84,3.2-1.42,7.19,1.02,9.95
	c2.17,2.42,5.52,3.4,8.61,2.57c0.4-0.11,0.82-0.25,1.21-0.43l72.94-31.76C87.05,298.19,88.45,296.95,89.37,295.36"/>
<path id="XMLID_15_" class="st0" d="M121.33,333.15c-17.36-9.99-38.54-1.7-51.07,19.94c-12.67,21.86-11.36,98.75-11.17,107.44
	c0.06,2.99,1.69,5.72,4.29,7.2c2,1.16,4.32,1.44,6.49,0.86c0.66-0.18,1.32-0.43,1.92-0.76c7.61-4.21,74.75-41.67,87.44-63.52
	c12.79-22.15,9.48-43.89-8.25-54.09L121.33,333.15z"/>
</svg>
