<?xml version="1.0" encoding="utf-8"?>
<!-- Generator: Adobe Illustrator 19.0.0, SVG Export Plug-In . SVG Version: 6.00 Build 0)  -->
<svg version="1.1" id="Ebene_1" xmlns="http://www.w3.org/2000/svg" xmlns:xlink="http://www.w3.org/1999/xlink" x="0px" y="0px"
	 width="33px" height="31px" viewBox="-8 10.5 33 31" style="enable-background:new -8 10.5 33 31;" xml:space="preserve">
<style type="text/css">
	.twitter-logo { fill:#1DA1F2; }
</style>
<path class="twitter-logo" d="M2.75,38.36c11.7,0,18.1-9.52,18.1-17.77c0-0.27,0-0.54-0.02-0.81c1.24-0.88,2.32-1.98,3.17-3.23
	c-1.16,0.5-2.39,0.84-3.65,0.98c1.33-0.78,2.32-2.01,2.8-3.45c-1.25,0.73-2.61,1.24-4.04,1.52c-2.41-2.51-6.44-2.64-9-0.27
	c-1.65,1.53-2.35,3.8-1.84,5.97c-5.12-0.25-9.88-2.62-13.11-6.53c-1.69,2.85-0.83,6.5,1.97,8.34c-1.01-0.03-2-0.3-2.89-0.78v0.08
	c0,2.97,2.14,5.53,5.1,6.12c-0.94,0.25-1.92,0.29-2.87,0.11c0.83,2.54,3.22,4.29,5.94,4.34c-2.25,1.74-5.03,2.68-7.9,2.68
	C-6,35.66-6.5,35.63-7,35.57C-4.09,37.39-0.71,38.36,2.75,38.36"/>
</svg>
