<?xml version="1.0" encoding="UTF-8"?>
<svg viewBox="0 0 82 57" version="1.1" xmlns="http://www.w3.org/2000/svg" xmlns:xlink="http://www.w3.org/1999/xlink">
    <title>urql</title>
    <g stroke-width="1" fill="none" fill-rule="evenodd">
        <g transform="translate(0.000000, 1.000000)" fill="#262D51" fill-rule="nonzero" stroke="#B1BBEA">
            <path d="M25.8347476,36.6666667 L21.4913058,32.5818501 L16.8826256,28.2473691 C15.2636302,26.7246979 14.3539814,24.6592828 14.3539814,22.5055216 L14.3539814,19.4910355 L21.420164,26.1368065 L28.2494372,26.1368065 L14.3539814,13.0680785 L14.2731698,12.9920748 C12.4227907,11.2517864 9.42274535,11.2517864 7.57236628,12.9920748 L0.75,12.9920748 L12.1219919,2.29667403 C13.685386,0.825971158 15.8061733,0 18.0174419,0 C20.2287105,0 22.3494977,0.825971158 23.9128919,2.29667403 L42.1918605,19.4881123 L42.7334098,19.9974414 L42.1918605,19.4645049 L59.6399669,2.29389191 C61.1322977,0.8249706 63.1566855,0 65.2674419,0 C67.3781983,0 69.4022564,0.8249706 70.8949169,2.29389191 L81.75,12.9763366 L75.2377413,12.9763366 C73.4714703,11.2381563 70.6077907,11.2381563 68.8415198,12.9763366 L68.7643814,13.0522482 L52.4350546,29.1218746 L60.3772395,36.5915292 C62.0007244,38.1184228 62.9127907,40.1893595 62.9127907,42.3486423 L62.9127907,48.7202806 L56.5476663,42.7341821 L46.0808337,42.7059244 L42.1044872,38.9658308 L42.1044872,43.326296 L50.742007,51.4505652 L46.8744453,55 L46.8744453,54.0247777 L45.740894,55 L45.740894,51.5966053 L45.6228394,51.4925088 L42.002264,54.7346369 L42.002264,53.6674752 L40.7201463,54.7439452 L40.7201463,52.3255617 L38.7390628,53.9495907 L38.7481667,52.9166709 L37.3574411,53.9855085 L37.3848438,51.0703751 L33.817152,47.924918 L28.2515528,43.0172015 C27.2077583,42.0968478 26.6212689,40.8485808 26.6212689,39.546969 L23.3546512,36.6666667 L25.8347476,36.6666667 Z" id="Combined-Shape"></path>
        </g>
    </g>
</svg>
