<?xml version="1.0" encoding="UTF-8"?>
<svg width="82px" height="55px" viewBox="0 0 82 55" version="1.1" xmlns="http://www.w3.org/2000/svg" xmlns:xlink="http://www.w3.org/1999/xlink">
    <!-- Generator: Sketch 53.2 (72643) - https://sketchapp.com -->
    <title>Group 23</title>
    <desc>Created with Sketch.</desc>
    <g id="Page-1" stroke="none" stroke-width="1" fill="none" fill-rule="evenodd">
        <g id="Group-23" transform="translate(0.000000, 0.000000)" fill="#262D51">
            <g id="Eagle" transform="translate(0.750000, 0.000000)">
                <path d="M52.744186,39.4166667 C52.744186,39.9231355 53.1660488,40.3333333 53.6860465,40.3333333 C54.2060442,40.3333333 54.627907,39.9231355 54.627907,39.4166667 C54.627907,38.9101979 54.2060442,38.5 53.6860465,38.5 L52.744186,38.5 L52.744186,39.4166667 Z" id="Fill-7"></path>
                <path d="M34.5656198,40.6057555 L46.1244453,51.4768741 L46.1244453,55 L49.992007,51.4505652 L41.3544872,43.326296 L41.3544872,38.9658308 L45.3308337,42.7059244 L55.7976663,42.7341821 L62.1627907,48.7202806 L62.1627907,42.3486423 C62.1627907,40.1893595 61.2507244,38.1184228 59.6272395,36.5915292 L41.4418605,19.4881123 L23.1628919,2.29667403 C21.5994977,0.825971158 19.4787105,0 17.2674419,0 C15.0561733,0 12.935386,0.825971158 11.3719919,2.29667403 L0,12.9920748 L6.82236628,12.9920748 C8.67274535,11.2517864 11.6727907,11.2517864 13.5231698,12.9920748 L13.6039814,13.0680785 L27.4994372,26.1368065 L20.670164,26.1368065 L13.6039814,19.4910355 L13.6039814,22.5055216 C13.6039814,24.6592828 14.5136302,26.7246979 16.1326256,28.2473691 L20.7413058,32.5818501 L27.5705791,39.0044823 C27.5705791,40.3517604 28.139714,41.6438223 29.1526221,42.5964662 L34.5535326,47.6766922 L38.0156547,50.9325062 L37.9890628,53.9495907 L41.252264,51.2745225 L41.252264,54.7346369 L44.9813407,51.3953488 L34.5656198,41.5993244" id="Fill-1"></path>
                <path d="M41.4418605,19.4645049 L58.8899669,2.29389191 C60.3822977,0.8249706 62.4066855,0 64.5174419,0 C66.6281983,0 68.6522564,0.8249706 70.1449169,2.29389191 L81,12.9763366 L74.4877413,12.9763366 C72.7214703,11.2381563 69.8577907,11.2381563 68.0915198,12.9763366 L68.0143814,13.0522482 L51.4701785,29.3333333" id="Fill-4"></path>
                <path d="M22.6046512,36.6666667 L25.8712689,39.546969 C25.8712689,40.8485808 26.4577583,42.0968478 27.5015528,43.0172015 L33.067152,47.924918 L36.6348438,51.0703751 L36.6074411,53.9855085 L39.9701463,51.4011125 L39.9701463,54.7439452 L43.8129329,51.5175296 L33.0796078,42.0535444 L33.6055977,41.5574383 L44.990894,51.5966053 L44.990894,55 L48.9767442,51.5708743 L40.0754866,43.7222935 L40.0754866,39.5093139 C38.0110298,37.6893168 35.2113259,36.6666667 32.2920465,36.6666667 L22.6046512,36.6666667 Z" id="Fill-13"></path>
            </g>
        </g>
    </g>
</svg>