<svg width="58px" height="52px" viewBox="0 0 58 52" version="1.1" xmlns="http://www.w3.org/2000/svg" xmlns:xlink="http://www.w3.org/1999/xlink">
    <g id="V3" stroke="none" stroke-width="1" fill="none" fill-rule="evenodd">
        <g id="Community_hover" transform="translate(-655.000000, -553.000000)" fill-rule="nonzero" fill="#FFFFFF">
            <g id="Group-6" transform="translate(14.000000, 328.000000)">
                <g id="logo" transform="translate(611.000000, 194.000000)">
                    <path d="M65.7746816,35.1854868 C63.6615973,31.9625315 63.1584821,31.5344828 58.8568465,31.5344828 L58.8568465,31.5344828 L58.8065349,31.5344828 L58.7562234,31.5344828 L58.7562234,31.5344828 C54.454588,31.5344828 53.9766285,31.9625315 51.8383885,35.1854868 C49.8510832,38.2070075 30.1289645,74.3645377 30.1289645,75.3717112 C30.1289645,76.8321129 30.506301,78.2169765 31.8647122,80.1809648 C33.2482792,82.1701327 35.6380767,83.2780236 37.3738244,81.5154699 C38.5561453,80.3320409 51.2094944,58.5015543 57.3223449,50.2427313 L57.3223449,50.2427313 C58.0518621,49.2103785 59.561208,49.2103785 60.3158808,50.2427313 L60.3158808,50.2427313 C66.4287314,58.5015543 79.0820804,80.3320409 80.2644014,81.5154699 C82.0001489,83.2780236 84.3899466,82.1701327 85.7735135,80.1809648 C87.1319248,78.2169765 87.5092612,76.8321129 87.5092612,75.3717112 C87.4841056,74.3645377 67.7619868,38.1818281 65.7746816,35.1854868 Z" id="Shape"></path>
                </g>
            </g>
        </g>
    </g>
</svg>