<svg width="53px" height="62px" viewBox="0 0 53 62" version="1.1" xmlns="http://www.w3.org/2000/svg" xmlns:xlink="http://www.w3.org/1999/xlink">
    <g id="V3" stroke="none" stroke-width="1" fill="none" fill-rule="evenodd">
        <g id="Community_hover" transform="translate(-356.000000, -388.000000)" fill-rule="nonzero" fill="#FFFFFF">
            <g id="Group-6" transform="translate(14.000000, 328.000000)">
                <g id="logo" transform="translate(310.000000, 32.000000)">
                    <path d="M81.6929887,48.6471151 C78.7357404,46.9761115 75.0189129,49.1563734 74.4232336,49.531244 L61.6549001,56.7970153 C59.7697603,55.2947344 57.0839917,55.3585541 55.2718454,56.9486905 C53.4596992,58.5388269 53.0388251,61.2010487 54.2715872,63.2757832 C55.5043492,65.3505177 58.038602,66.2451054 60.2945461,65.4018792 C62.5504901,64.558653 63.8837023,62.2184853 63.4630865,59.840187 L76.1961727,52.59033 C77.11084,52.0121097 79.0529661,51.218162 79.960584,51.732725 C80.6144214,52.1022909 80.9880427,53.3400713 81.0180029,55.1631451 L81.0021417,71.1888656 C80.9994985,72.6837623 80.2047203,74.0644578 78.9155017,74.8137941 L60.6115801,85.4233409 C59.3202299,86.1684586 57.7314127,86.1684586 56.4400625,85.4233409 L38.1361409,74.8137941 C36.8469223,74.0644578 36.0521441,72.6837623 36.0495009,71.1888656 L36.0495009,49.9786132 C36.0521441,48.4837165 36.8469223,47.103021 38.1361409,46.3536847 L54.7023707,36.7608862 C56.2785203,38.5751013 58.9199091,39.0037651 60.9857081,37.7805919 C63.0515072,36.5574187 63.9543425,34.0301965 63.1333733,31.768834 C62.3124041,29.5074715 60.0010588,28.154948 57.6351435,28.55145 C55.2692282,28.947952 53.5214498,30.9807412 53.4775271,33.3870503 L36.3825879,43.289294 C33.9988772,44.6688609 32.5276549,47.2175803 32.5212465,49.9786132 L32.5212465,71.1835608 C32.5238504,73.9433086 33.9902008,76.4930771 36.3702513,77.8764166 L54.6741729,88.4859634 C57.0565631,89.8610007 59.98803,89.8610007 62.3704203,88.4859634 L80.6743418,77.8764166 C83.0527611,76.4940284 84.51886,73.9467178 84.5233467,71.1888656 L84.5233467,55.7731941 C84.6255638,52.1571068 83.6615502,49.7611175 81.6929887,48.6471151 Z" id="Shape"></path>
                </g>
            </g>
        </g>
    </g>
</svg>