<svg width="256" height="256" viewBox="0 0 256 256" fill="none" xmlns="http://www.w3.org/2000/svg">
<path fill-rule="evenodd" clip-rule="evenodd" d="M95.4492 101.53L37.9702 118.53C36.2142 119.05 34.5312 117.531 34.9002 115.759L55.4342 17.4207C55.8182 15.5807 58.3602 15.2897 59.1622 16.9927L97.1822 97.7277C97.8992 99.2517 97.0812 101.048 95.4492 101.53ZM105.306 97.5187L61.2843 4.03769V4.03569C60.1803 1.69869 57.8763 0.156691 55.2653 0.0126908C52.5863 -0.143309 50.1863 1.14869 48.8323 3.34769L1.08827 80.6777C-0.390728 83.0887 -0.361728 86.0607 1.17227 88.4407L24.5103 124.594C25.9003 126.752 28.3113 128.001 30.8163 128.001C31.5263 128.001 32.2403 127.9 32.9423 127.692L100.686 107.656C102.761 107.043 104.458 105.574 105.346 103.629C106.231 101.681 106.217 99.4537 105.306 97.5187Z" transform="translate(74.9999 63.9996)" fill="#0C344B"/>
</svg>
