<svg width="52" height="63" viewBox="0 0 52 63" fill="none" xmlns="http://www.w3.org/2000/svg">
<path fill-rule="evenodd" clip-rule="evenodd" d="M46.8243 49.9714L18.627 58.3385C17.7655 58.5945 16.9399 57.8468 17.1209 56.9747L27.1942 8.57418C27.3826 7.66857 28.6296 7.52534 29.0231 8.36353L47.6744 48.1C48.0262 48.8501 47.6249 49.7342 46.8243 49.9714ZM51.6597 47.9971L30.0641 1.98728V1.9863C29.5225 0.836067 28.3922 0.0771208 27.1114 0.00624621C25.7971 -0.0705343 24.6198 0.565367 23.9555 1.64768L0.53387 39.7082C-0.191678 40.8949 -0.177452 42.3577 0.575078 43.5291L12.024 61.3231C12.7058 62.3853 13.8886 63 15.1175 63C15.4658 63 15.816 62.9503 16.1604 62.8479L49.3933 52.9865C50.4112 52.6848 51.2437 51.9618 51.6793 51.0045C52.1135 50.0457 52.1066 48.9495 51.6597 47.9971Z" fill="#0C344B"/>
</svg>
